<?xml version="1.0" encoding="UTF-8"?>
<svg version="1.1" xmlns="http://www.w3.org/2000/svg" width="736" height="736">
<path d="M0 0 C242.88 0 485.76 0 736 0 C736 242.88 736 485.76 736 736 C493.12 736 250.24 736 0 736 C0 493.12 0 250.24 0 0 Z " fill="#FDFEF8" transform="translate(0,0)"/>
<path d="M0 0 C242.88 0 485.76 0 736 0 C736 242.88 736 485.76 736 736 C493.12 736 250.24 736 0 736 C0 493.12 0 250.24 0 0 Z M12 12 C11.25889836 125.87278211 10.87619938 239.74301019 10.87053922 429.18047586 C10.87513881 449.5919988 10.87417488 470.00351619 10.86962891 490.41503906 C10.86425369 514.62489041 10.86217344 538.83473759 10.86524117 563.04458964 C10.86555952 565.62406262 10.86587389 568.2035356 10.86618423 570.78300858 C10.86633851 572.04981667 10.86649279 573.31662476 10.86665174 574.62182098 C10.86750323 583.40420651 10.86608597 592.18658987 10.86370468 600.96897507 C10.86088292 611.59705014 10.86169827 622.22511783 10.86698543 632.85319208 C10.86957721 638.23419331 10.87070506 643.61518231 10.86733627 648.9961834 C10.8642831 653.94701355 10.86610965 658.89782048 10.87131383 663.84864862 C10.87239954 665.60457007 10.87193707 667.36049363 10.86943804 669.11641364 C10.84500111 687.76161879 11.49590309 706.34841444 12 725 C247.29 725 482.58 725 725 725 C725 489.71 725 254.42 725 12 C636.869375 11.814375 548.73875 11.62875 457.9375 11.4375 C430.46234131 11.37618896 402.98718262 11.31487793 374.67944336 11.25170898 C345.36647158 11.19142398 345.36647158 11.19142398 316.05349088 11.13607335 C314.67708052 11.13360083 313.30067017 11.13112815 311.92425981 11.12865534 C311.2343384 11.12741802 310.54441698 11.12618069 309.83358886 11.12490587 C307.67606567 11.12102398 305.51854256 11.11710366 303.36101946 11.11317453 C217.96067557 10.9579161 132.56558642 10.97550641 12 12 Z " fill="#E3DDD5" transform="translate(0,0)"/>
<path d="M0 0 C0.66 0 1.32 0 2 0 C3.38560598 1.9641471 4.71012455 3.97170044 6 6 C11.43538904 13.58801837 17.24508912 20.76868234 23.31640625 27.84765625 C25.74792194 30.68658245 28.0977285 33.58480549 30.4375 36.5 C36.15864102 43.53503778 42.25589864 50.51612361 48.8515625 56.75 C50 58 50 58 50 60 C50.99 60.33 51.98 60.66 53 61 C54.578125 62.63671875 54.578125 62.63671875 56.25 64.6875 C59.54432023 68.58589601 63.04956162 71.77515235 67 75 C64.71791683 70.72109406 62.20319486 66.86233662 59.29296875 62.98046875 C55.08730673 57.23196616 51.38402698 51.28336906 47.8125 45.125 C47.20027588 44.0728833 46.58805176 43.0207666 45.95727539 41.93676758 C42.37241607 35.6752391 39.26054627 29.61974112 36.95703125 22.7734375 C35.5665663 18.74392682 33.69099233 14.96990349 31.8203125 11.14453125 C31.54960937 10.43683594 31.27890625 9.72914062 31 9 C31.33 8.34 31.66 7.68 32 7 C43.69185751 20.49651204 43.69185751 20.49651204 47.5625 25.5625 C54.47432881 34.60491682 62.02669633 43.12710312 69.72265625 51.50390625 C71.7479556 53.72374551 73.72597771 55.97393516 75.6875 58.25 C78.41723038 61.39526311 81.30042445 64.32420459 84.2734375 67.23828125 C85.98869366 68.98846344 87.55240575 70.80890835 89.125 72.6875 C93.77040565 78.0724209 99.08376169 82.74667448 104.35107422 87.50830078 C105.90683952 88.91572245 107.45654841 90.32944056 109.00390625 91.74609375 C112.96653572 95.36702221 116.93212795 98.9467912 121.0625 102.375 C130.31593345 110.47411966 136.86013595 120.46250338 143 131 C148.86092551 140.99588595 154.79224582 150.74339865 162.23046875 159.6796875 C164 162 164 162 164 164 C161.69 164.33 159.38 164.66 157 165 C157 172.59613463 161.43038301 177.26240255 166 183 C166.69609375 183.94552734 166.69609375 183.94552734 167.40625 184.91015625 C173.09238709 192.2431928 181.66373096 198.32547124 189.8125 202.625 C193 205 193 205 193.9375 208.4375 C192.94166566 218.11922277 186.15594511 228.02433269 179.32421875 234.6171875 C174.74666745 238.13501929 169.82362005 240.77738246 164.6875 243.375 C163.98133545 243.73319824 163.2751709 244.09139648 162.54760742 244.46044922 C157.37988806 247 157.37988806 247 154 247 C154 247.66 154 248.32 154 249 C152.35 249 150.7 249 149 249 C149.50593087 246.21738023 150.115846 243.67290541 151.0625 241 C153.14957842 233.63100774 153.21079621 225.63796928 149.875 218.6875 C148.95842866 217.10014181 148.00081229 215.53563791 147 214 C146.55398438 213.31421875 146.10796875 212.6284375 145.6484375 211.921875 C136.42389689 198.83230341 123.12485876 189.59135482 109.90625 180.9296875 C105.15399188 177.77429031 100.56980226 174.41220876 96 171 C95.15566406 170.39800781 94.31132812 169.79601562 93.44140625 169.17578125 C86.76275574 164.20586504 82.05765705 158.25543673 77.18945312 151.61083984 C61.10045317 129.82200123 41.10216371 113.32247723 15.54931641 103.94213867 C13.85731668 103.31683442 12.17711469 102.65857726 10.51098633 101.96728516 C2.37165478 98.84028575 -5.24056553 98.44320695 -13.82739258 98.58837891 C-16.06312764 98.62501028 -18.29719795 98.6293958 -20.53320312 98.62890625 C-40.5311878 98.72551487 -55.83260691 103.61378198 -70.8125 117.3125 C-81.66973686 128.6917194 -83.49166562 143.17921725 -83.20703125 158.17578125 C-82.94380288 163.0380562 -82.0655938 166.62709399 -80 171 C-79.51273437 172.08925781 -79.02546875 173.17851562 -78.5234375 174.30078125 C-74.95017589 182.02658211 -70.65031893 188.610387 -65 195 C-64.30003906 195.83144531 -63.60007812 196.66289062 -62.87890625 197.51953125 C-57.46887349 203.79748371 -51.52388193 208.91611354 -45 214 C-44.09378906 214.75667969 -43.18757813 215.51335937 -42.25390625 216.29296875 C-27.03317186 228.68381892 -9.03686558 238.36410997 9 246 C13.53579025 248.17864925 18.02139922 250.45220698 22.50585938 252.734375 C24.26518567 253.62712632 26.02716421 254.5146603 27.79101562 255.3984375 C39.25609593 261.14999736 50.12265371 266.73810754 60 275 C61.81116409 276.4391828 63.62362472 277.87673575 65.4375 279.3125 C66.95916064 280.54064234 68.48001383 281.76978589 70 283 C71.27230469 283.98613281 71.27230469 283.98613281 72.5703125 284.9921875 C74.77929084 286.81761333 76.587306 288.63397421 78.4375 290.8125 C79.0253125 291.50214844 79.613125 292.19179688 80.21875 292.90234375 C80.8065625 293.59457031 81.394375 294.28679687 82 295 C82.5878125 295.66128906 83.175625 296.32257813 83.78125 297.00390625 C84.3278125 297.62136719 84.874375 298.23882812 85.4375 298.875 C85.93121094 299.42929687 86.42492187 299.98359375 86.93359375 300.5546875 C88 302 88 302 88 304 C88.66 304 89.32 304 90 304 C94.05044268 309.94390263 97.35424075 316.32260761 100 323 C100.33902344 323.70640625 100.67804688 324.4128125 101.02734375 325.140625 C101.38957031 325.89859375 101.75179687 326.6565625 102.125 327.4375 C102.62386719 328.45650391 102.62386719 328.45650391 103.1328125 329.49609375 C105.75756763 337.0747786 105.18311957 345.4639492 105.1875 353.375 C105.19974609 354.56222656 105.21199219 355.74945313 105.22460938 356.97265625 C105.22654297 358.10316406 105.22847656 359.23367188 105.23046875 360.3984375 C105.23457764 361.42630371 105.23868652 362.45416992 105.24291992 363.51318359 C105 366 105 366 103 368 C102.79246094 366.98164063 102.58492187 365.96328125 102.37109375 364.9140625 C95.96071494 334.88177858 81.74579546 313.79589016 56 297 C54.97519531 296.32582031 53.95039063 295.65164063 52.89453125 294.95703125 C34.67703973 283.38927048 14.9333468 274.56805992 -4.77734375 265.8984375 C-8.56660433 264.21799017 -12.2499422 262.39326188 -15.9375 260.5 C-19.79190784 258.5396879 -23.62629536 256.68560171 -27.6875 255.1875 C-50.59968566 246.36932328 -71.44828029 231.7997194 -90 216 C-92.96758242 217.30068506 -94.686745 218.53649171 -96.625 221.125 C-97.40875 222.07375 -98.1925 223.0225 -99 224 C-99.66 224 -100.32 224 -101 224 C-103.97375304 214.72530301 -106.75824998 205.44051954 -109.203125 196.01171875 C-109.73810921 193.98979312 -110.33860818 191.98417545 -111 190 C-116.16834065 190.39756467 -119.69656942 192.32974321 -124.046875 194.94140625 C-126 196 -126 196 -128 196 C-127.88366642 194.47847921 -127.7564113 192.95779277 -127.625 191.4375 C-127.55539063 190.59058594 -127.48578125 189.74367188 -127.4140625 188.87109375 C-127.02442016 186.16932847 -126.33962457 183.69484292 -125.55712891 181.08569336 C-124.37045765 176.64321634 -123.67000664 172.08814893 -122.875 167.5625 C-122.69324219 166.54478516 -122.51148438 165.52707031 -122.32421875 164.47851562 C-121.8795892 161.98624998 -121.43934951 159.49320185 -121 157 C-126.94 157 -132.88 157 -139 157 C-137.48329148 153.20822871 -136.4159565 150.9185866 -134.125 147.75 C-133.51785156 146.89921875 -132.91070312 146.0484375 -132.28515625 145.171875 C-131.15400391 143.60179687 -131.15400391 143.60179687 -130 142 C-127.8474361 139.00476302 -125.70370522 136.00336356 -123.5625 133 C-122.74579834 131.86836426 -122.74579834 131.86836426 -121.91259766 130.71386719 C-121.40647949 130.00391602 -120.90036133 129.29396484 -120.37890625 128.5625 C-119.9207251 127.92441406 -119.46254395 127.28632813 -118.99047852 126.62890625 C-117.82681573 125.03292153 -117.82681573 125.03292153 -118 123 C-122.95 121.35 -127.9 119.7 -133 118 C-130.74168441 113.48336882 -128.23189939 111.84698749 -124.125 109.25 C-122.77205067 108.3725265 -121.41918735 107.49492034 -120.06640625 106.6171875 C-119.38723145 106.18116211 -118.70805664 105.74513672 -118.00830078 105.29589844 C-115.00297882 103.35665106 -112.03411058 101.36551865 -109.0625 99.375 C-107.375 98.25 -105.6875 97.125 -104 96 C-105.49717672 92.3310944 -107.60762731 90.39426672 -110.625 87.875 C-112.11964664 86.62553199 -113.58805547 85.34221888 -115 84 C-115 83.34 -115 82.68 -115 82 C-113.71867187 81.74605469 -112.43734375 81.49210937 -111.1171875 81.23046875 C-109.36975169 80.88301349 -107.62235882 80.53534223 -105.875 80.1875 C-104.96878906 80.00735352 -104.06257813 79.82720703 -103.12890625 79.64160156 C-96.64972115 78.34713919 -90.19491394 76.97192767 -83.75 75.515625 C-81 75 -81 75 -77 75 C-79.30292798 70.59013791 -81.53687491 66.33414832 -84.8125 62.5625 C-87 60 -87 60 -87 58 C-73.66078833 58.92161826 -60.33094846 59.96702441 -47 61 C-47.41572266 59.66195312 -47.41572266 59.66195312 -47.83984375 58.296875 C-48.38318359 56.54117188 -48.38318359 56.54117188 -48.9375 54.75 C-49.47697266 53.00976562 -49.47697266 53.00976562 -50.02734375 51.234375 C-50.75066637 48.82910942 -51.42542411 46.44345956 -52 44 C-45.63927739 45.4409875 -39.65644524 48.2216392 -33.75 50.9375 C-27.65294384 53.69490738 -21.31158649 55.79400861 -15 58 C-15 53.38 -15 48.76 -15 44 C-10.06142237 46.32403653 -5.44262938 48.91866914 -0.8125 51.8125 C10.79526408 58.99063457 21.86192102 64.34022704 35 68 C34.64808594 67.40687012 34.29617188 66.81374023 33.93359375 66.20263672 C31.07414366 61.38058104 28.22178054 56.55450542 25.37890625 51.72265625 C23.53529274 48.59018515 21.68366693 45.46577423 19.77734375 42.37109375 C11.78863898 29.09050812 5.68311387 14.3957925 0 0 Z " fill="#1B1B19" transform="translate(337,80)"/>
<path d="M0 0 C182.16 0 364.32 0 552 0 C552 207.57 552 415.14 552 629 C550.02 629.33 548.04 629.66 546 630 C546.00523682 630.66306152 546.01047363 631.32612305 546.01586914 632.00927734 C546.17755602 655.70561457 546.17755602 655.70561457 545.26782227 667.51513672 C545.02261955 670.91696741 545.00894052 673.73028409 546 677 C545.835 677.61875 545.67 678.2375 545.5 678.875 C544.82373483 681.74912698 545.49858124 684.11684213 546 687 C545.67 687.66 545.34 688.32 545 689 C545.99 689 546.98 689 548 689 C548 689.66 548 690.32 548 691 C547.01 691 546.02 691 545 691 C545 691.66 545 692.32 545 693 C545.66 693 546.32 693 547 693 C547 693.66 547 694.32 547 695 C546.34 695.33 545.68 695.66 545 696 C545 696.99 545 697.98 545 699 C544.34 699 543.68 699 543 699 C543.02320313 699.90363281 543.04640625 700.80726563 543.0703125 701.73828125 C543.08835937 702.91777344 543.10640625 704.09726562 543.125 705.3125 C543.14820313 706.48425781 543.17140625 707.65601563 543.1953125 708.86328125 C543 712 543 712 541 715 C541 483.01 541 251.02 541 12 C350.26 12 159.52 12 -37 12 C-37 11.67 -37 11.34 -37 11 C-30.07 11 -23.14 11 -16 11 C-15.67 9.68 -15.34 8.36 -15 7 C-15.99 6.67 -16.98 6.34 -18 6 C-16.02 4.68 -14.04 3.36 -12 2 C-11.34 2.33 -10.68 2.66 -10 3 C-11.98 3.99 -11.98 3.99 -14 5 C-14 5.66 -14 6.32 -14 7 C-13.49210937 6.62746094 -12.98421875 6.25492187 -12.4609375 5.87109375 C-6.76843911 1.95883362 -6.76843911 1.95883362 -2.5 2.1875 C-1.675 2.455625 -0.85 2.72375 0 3 C0 2.01 0 1.02 0 0 Z " fill="#E3DDD5" transform="translate(184,0)"/>
<path d="M0 0 C6.94170022 -0.05058729 13.88335315 -0.08568579 20.82519531 -0.10986328 C23.18816911 -0.11993924 25.55113039 -0.13360029 27.9140625 -0.15087891 C31.30471888 -0.17505724 34.69521084 -0.18646699 38.0859375 -0.1953125 C39.14743011 -0.20563507 40.20892273 -0.21595764 41.30258179 -0.22659302 C42.77388046 -0.22681961 42.77388046 -0.22681961 44.27490234 -0.22705078 C45.14094086 -0.231492 46.00697937 -0.23593323 46.89926147 -0.24050903 C49 0 49 0 51 2 C51.24529581 4.57579385 51.37341793 7.05229007 51.4140625 9.6328125 C51.43342865 10.38464813 51.4527948 11.13648376 51.4727478 11.91110229 C51.53259147 14.31561899 51.57894726 16.72018344 51.625 19.125 C51.66317546 20.75392728 51.70222693 22.38283428 51.7421875 24.01171875 C51.83829666 28.00764806 51.92230941 32.00367187 52 36 C56.33213102 30.25356108 60.65500108 24.50422936 64.87109375 18.671875 C65.46470703 17.85332031 66.05832031 17.03476562 66.66992188 16.19140625 C67.8799812 14.52005359 69.08549691 12.84540453 70.28710938 11.16796875 C70.87169922 10.36488281 71.45628906 9.56179688 72.05859375 8.734375 C72.83674438 7.65494629 72.83674438 7.65494629 73.63061523 6.55371094 C74.08251221 6.04098633 74.53440918 5.52826172 75 5 C75.66 5 76.32 5 77 5 C77.4640625 4.0409375 77.4640625 4.0409375 77.9375 3.0625 C79 1 79 1 80 0 C82.95705321 -0.08868299 85.89065056 -0.11520296 88.84765625 -0.09765625 C90.17729652 -0.09553383 90.17729652 -0.09553383 91.53379822 -0.09336853 C94.37673254 -0.08775215 97.21958931 -0.07519691 100.0625 -0.0625 C101.98502491 -0.05748711 103.90755104 -0.05292384 105.83007812 -0.04882812 C110.55341549 -0.03777741 115.27669458 -0.02050183 120 0 C118.84243082 3.13340279 117.68998101 5.69672027 115.56640625 8.27734375 C114.84855957 9.16063354 114.84855957 9.16063354 114.11621094 10.06176758 C113.60348633 10.68075928 113.09076172 11.29975098 112.5625 11.9375 C111.47464637 13.27293753 110.38742105 14.60888709 109.30078125 15.9453125 C108.74986816 16.61981445 108.19895508 17.29431641 107.63134766 17.98925781 C104.66820702 21.64152155 101.7732921 25.34752713 98.8918457 29.06445312 C96.82052131 31.72731277 94.72573383 34.31283484 92.5 36.8515625 C91.7575 37.70492187 91.015 38.55828125 90.25 39.4375 C89.26773438 40.51837891 89.26773438 40.51837891 88.265625 41.62109375 C86.84963167 44.28263676 86.66374453 45.99879529 87.26513672 48.95385742 C88.90210652 53.51181221 91.76252154 57.43476204 94.4375 61.4375 C95.72059555 63.40329121 97.00314425 65.36943947 98.28515625 67.3359375 C98.91824707 68.29854492 99.55133789 69.26115234 100.20361328 70.25292969 C102.64743768 73.99007459 105.02033867 77.76874808 107.375 81.5625 C108.16140551 82.82945987 108.94786249 84.0963878 109.734375 85.36328125 C110.10755859 85.96479004 110.48074219 86.56629883 110.86523438 87.18603516 C112.02693275 89.043053 113.2068403 90.88746516 114.390625 92.73046875 C114.95644287 93.62173462 114.95644287 93.62173462 115.53369141 94.53100586 C116.5509976 96.13343381 117.57598389 97.73097887 118.6015625 99.328125 C120 102 120 102 120 106 C114.32639919 106.34812061 108.65908478 106.60092847 102.97729492 106.76904297 C101.0491102 106.83913529 99.12166167 106.93445848 97.19604492 107.05615234 C81.68474606 108.01131124 81.68474606 108.01131124 77.2963562 104.72369385 C73.9301209 100.96809053 72.02551355 96.57385877 70 92 C69.0103488 90.35758727 67.99305883 88.73108119 66.93359375 87.1328125 C66.10059817 85.79747607 65.26851933 84.4615672 64.4375 83.125 C64.00115234 82.42503906 63.56480469 81.72507812 63.11523438 81.00390625 C62.07594923 79.33648174 61.03783118 77.66832987 60 76 C57.21275598 76.57411307 56.03294611 76.97218532 53.79296875 78.86328125 C51.13158748 83.51924891 51.36360184 87.91038322 51.3125 93.1875 C51.27051675 95.18106841 51.22511623 97.17456872 51.17578125 99.16796875 C51.16458252 100.04735107 51.15338379 100.9267334 51.1418457 101.83276367 C51 104 51 104 50 106 C38.45 106 26.9 106 15 106 C15.01160156 103.18911865 15.02320313 100.3782373 15.03515625 97.48217773 C15.06769523 88.18612247 15.05628316 78.89049329 15.02334595 69.59445095 C15.00472518 63.95909397 15.00082409 58.32453381 15.03076172 52.68920898 C15.05911924 47.24875639 15.04855079 41.80963374 15.01119995 36.36924934 C15.00376392 34.29567807 15.01026093 32.22200768 15.03103638 30.14852715 C15.05779097 27.23872435 15.03462232 24.33321581 15 21.42358398 C15.0291172 20.14288025 15.0291172 20.14288025 15.05882263 18.83630371 C14.96809742 15.09468307 14.71751732 12.8612498 12.27539062 9.92991829 C8.49862496 6.54763196 4.66059562 3.98075314 0 2 C0 1.34 0 0.68 0 0 Z " fill="#1B1B19" transform="translate(174,483)"/>
<path d="M0 0 C18.48 0 36.96 0 56 0 C62.4124057 13.89354568 62.4124057 13.89354568 65 21 C66.10670812 23.6425885 67.27044959 26.25860001 68.4375 28.875 C70.73615998 34.07729366 72.96247597 39.29174737 75.04296875 44.5859375 C76.95900172 49.41903291 78.99264091 54.2043032 81 59 C81.83370215 60.99984629 82.6670375 62.99984553 83.5 65 C83.91636719 65.99902344 84.33273437 66.99804688 84.76171875 68.02734375 C85.55673615 69.9358871 86.3510667 71.84471679 87.14453125 73.75390625 C87.52996094 74.68074219 87.91539062 75.60757813 88.3125 76.5625 C88.7146875 77.53316406 89.116875 78.50382813 89.53125 79.50390625 C90.70197733 82.29061093 91.89192929 85.06653517 93.09375 87.83984375 C93.45944092 88.69054443 93.82513184 89.54124512 94.2019043 90.41772461 C94.93190629 92.11507151 95.66758664 93.80998954 96.40942383 95.50219727 C96.74482178 96.28522217 97.08021973 97.06824707 97.42578125 97.875 C97.72911377 98.57367187 98.03244629 99.27234375 98.3449707 99.9921875 C99 102 99 102 99 106 C86.46 106 73.92 106 61 106 C57 99 57 99 57 95 C51.82473726 91.75331608 45.5702153 92.62805585 39.67333984 92.62939453 C37.50669183 92.62501353 35.34207019 92.58864828 33.17578125 92.55078125 C31.79427777 92.54491385 30.41276466 92.54094394 29.03125 92.5390625 C27.77892578 92.53084473 26.52660156 92.52262695 25.23632812 92.51416016 C22.01887128 92.76169314 22.01887128 92.76169314 19.81054688 94.46630859 C17.2564367 97.86124816 17.2564367 97.86124816 14 106 C1.79 106 -10.42 106 -23 106 C-24.42039218 101.73882345 -22.58676332 98.98096345 -20.875 95.0625 C-20.39003052 93.92167969 -20.39003052 93.92167969 -19.89526367 92.7578125 C-19.24125867 91.21996878 -18.58365193 89.68365155 -17.92236328 88.14892578 C-16.69003343 85.27783861 -15.50171829 82.3891667 -14.3125 79.5 C-12.62694618 75.46123794 -10.88176898 71.45514119 -9.09375 67.4609375 C-5.224937 58.75610824 -1.5846144 49.99684773 1.78125 41.0859375 C2.94259465 38.1453533 4.218186 35.29826577 5.5625 32.4375 C10.56839055 22.14026215 10.56839055 22.14026215 12.125 11 C10.61476797 6.9727146 8.76998916 5.95749437 5 4 C3.35380887 3.28426473 1.69271945 2.5974304 0 2 C0 1.34 0 0.68 0 0 Z " fill="#1B1B19" transform="translate(321,483)"/>
<path d="M0 0 C0.99 0.495 0.99 0.495 2 1 C2.28891106 3.60913493 2.46803699 6.13268342 2.5625 8.75 C2.71087094 14.01039034 2.71087094 14.01039034 3.51147461 19.19335938 C4.19085778 23.0965023 4.10262143 26.90595383 4.0625 30.859375 C4.05871338 31.72201965 4.05492676 32.58466431 4.05102539 33.47344971 C4.0348376 37.14072745 4.00708988 40.80789057 3.97949219 44.47509766 C3.89781926 56.36280718 4.12710975 68.14194179 5 80 C5.66 80 6.32 80 7 80 C7.33 78.68 7.66 77.36 8 76 C8.99 76.33 9.98 76.66 11 77 C11 254.54 11 432.08 11 615 C9.02 615.33 7.04 615.66 5 616 C5.00523682 616.66306152 5.01047363 617.32612305 5.01586914 618.00927734 C5.17755602 641.70561457 5.17755602 641.70561457 4.26782227 653.51513672 C4.02261955 656.91696741 4.00894052 659.73028409 5 663 C4.7525 663.928125 4.7525 663.928125 4.5 664.875 C3.82373483 667.74912698 4.49858124 670.11684213 5 673 C4.67 673.66 4.34 674.32 4 675 C4.99 675 5.98 675 7 675 C7 675.66 7 676.32 7 677 C6.01 677 5.02 677 4 677 C4 677.66 4 678.32 4 679 C4.66 679 5.32 679 6 679 C6 679.66 6 680.32 6 681 C5.34 681.33 4.68 681.66 4 682 C4 682.99 4 683.98 4 685 C3.34 685 2.68 685 2 685 C2.02320313 685.90363281 2.04640625 686.80726563 2.0703125 687.73828125 C2.08835937 688.91777344 2.10640625 690.09726562 2.125 691.3125 C2.14820313 692.48425781 2.17140625 693.65601563 2.1953125 694.86328125 C2 698 2 698 0 701 C0 469.67 0 238.34 0 0 Z " fill="#E3DDD5" transform="translate(725,14)"/>
<path d="M0 0 C6.96003447 -0.02526838 13.9200572 -0.04283222 20.88012695 -0.05493164 C23.24992312 -0.05997341 25.61971615 -0.06680665 27.98950195 -0.07543945 C31.38754039 -0.0875119 34.78553785 -0.09322971 38.18359375 -0.09765625 C39.25024765 -0.10281754 40.31690155 -0.10797882 41.4158783 -0.11329651 C42.88729027 -0.11340981 42.88729027 -0.11340981 44.38842773 -0.11352539 C45.25668686 -0.115746 46.12494598 -0.11796661 47.01951599 -0.12025452 C49 0 49 0 50 1 C50.12420734 3.29983022 50.17804453 5.60347386 50.20532227 7.90649414 C50.21522186 8.62840439 50.22512146 9.35031464 50.23532104 10.09410095 C50.26702299 12.49108551 50.29172759 14.88808992 50.31640625 17.28515625 C50.33696829 18.94283069 50.35796455 20.6004998 50.37937927 22.25816345 C50.4346775 26.62948295 50.48405244 31.00085037 50.53222656 35.37225342 C50.59119791 40.61273716 50.65746834 45.85313298 50.72252655 51.09354401 C50.82063354 59.06230915 50.90942276 67.03112967 51 75 C66.84 75 82.68 75 99 75 C99.020625 79.929375 99.04125 84.85875 99.0625 89.9375 C99.071604 91.49460693 99.08070801 93.05171387 99.09008789 94.65600586 C99.09258545 95.87167236 99.09508301 97.08733887 99.09765625 98.33984375 C99.10289307 99.59144287 99.10812988 100.84304199 99.11352539 102.13256836 C99 105 99 105 98 106 C95.38311559 106.09509559 92.792711 106.12556 90.17553711 106.11352539 C89.35609116 106.11367142 88.5366452 106.11381744 87.69236755 106.1139679 C84.97066647 106.11326852 82.24903295 106.10547501 79.52734375 106.09765625 C77.64547259 106.09579216 75.76360094 106.09436821 73.88172913 106.09336853 C68.91851471 106.08954267 63.95532936 106.07971181 58.99212646 106.06866455 C53.93160394 106.0584519 48.87107673 106.05387122 43.81054688 106.04882812 C33.87368512 106.0380896 23.93684497 106.02101236 14 106 C13.99413376 104.87548935 13.98826752 103.7509787 13.98222351 102.59239197 C13.92495854 91.98409222 13.852177 81.37599673 13.76428509 70.76790524 C13.71959765 65.31444215 13.68033778 59.86105349 13.65356445 54.4074707 C13.62751549 49.14239347 13.58710141 43.87760289 13.53681374 38.61270332 C13.52015587 36.60615167 13.50863488 34.59955044 13.50238609 32.59293938 C13.49273338 29.77771986 13.46465977 26.96323193 13.43237305 24.14819336 C13.43380814 23.32244308 13.43524323 22.49669281 13.4367218 21.6459198 C13.35158993 16.38169334 12.49213681 12.6667681 10 8 C7.58493541 6.00196888 7.58493541 6.00196888 4.8125 4.6875 C3.1838211 3.83704535 1.57134037 2.95223816 0 2 C0 1.34 0 0.68 0 0 Z " fill="#1A1A18" transform="translate(410,483)"/>
<path d="M0 0 C16.17 0 32.34 0 49 0 C49 34.98 49 69.96 49 106 C37.12 106 25.24 106 13 106 C12.98541748 103.20893799 12.97083496 100.41787598 12.95581055 97.54223633 C12.9054805 88.3220385 12.83888817 79.10200983 12.76428509 69.88197803 C12.71955177 64.29169467 12.68030204 58.70148468 12.65356445 53.11108398 C12.62756123 47.71634151 12.58717964 42.32188097 12.53681374 36.92731285 C12.5201249 34.86886793 12.5086232 32.81037423 12.50238609 30.75187111 C12.49276707 27.86919197 12.46473375 24.98723741 12.43237305 22.10473633 C12.43380814 21.25309402 12.43524323 20.40145172 12.4367218 19.52400208 C12.36265573 14.86087365 12.00477242 11.79540784 9 8 C6.77059602 6.22733733 6.77059602 6.22733733 4.3125 4.8125 C1.86328125 3.33203125 1.86328125 3.33203125 0 2 C0 1.34 0 0.68 0 0 Z " fill="#1C1C1A" transform="translate(501,483)"/>
<path d="M0 0 C0.33 0 0.66 0 1 0 C1.94255574 10.35128182 2.07939065 20.59880148 1.875 30.98999023 C1.80858235 36.83151446 2.26342174 42.07748154 3.55249023 47.77319336 C4.16812801 50.83660424 4.15590447 53.759027 4.0625 56.875 C3.99362778 61.15885235 4.05631273 65.30188662 4.5 69.5625 C5.70886392 82.51461345 5.30909991 95.71773746 4.26806641 108.6706543 C4.01271547 112.07292981 4.17922307 114.72469001 5 118 C5.09085927 119.44176564 5.13351455 120.88704179 5.1386652 122.33165836 C5.14687681 123.62975297 5.14687681 123.62975297 5.1552543 124.9540717 C5.15623245 125.90122526 5.1572106 126.84837882 5.15821838 127.82423401 C5.16315672 128.83543834 5.16809505 129.84664266 5.17318302 130.88848954 C5.18859952 134.29618212 5.19693641 137.70385565 5.20532227 141.11157227 C5.21490303 143.55997696 5.2249078 146.00838002 5.23530388 148.45678139 C5.2596505 154.46372325 5.27936594 160.47066469 5.29704247 166.47762859 C5.31817553 173.58472952 5.34477137 180.69180716 5.3714836 187.79888893 C5.42573022 202.29688644 5.47302048 216.79490151 5.51790267 231.29293066 C5.55216619 242.3525399 5.58834198 253.41214143 5.62567139 264.47174072 C5.87161287 337.53359596 6.09947349 410.59572398 6.12211341 483.65804261 C6.12375349 488.80631698 6.12671501 493.95458824 6.13081557 499.10286123 C6.13775894 507.82074982 6.13947475 516.53861599 6.13438225 525.25650597 C6.13288165 528.05595074 6.13350121 530.85538135 6.13614082 533.65482521 C6.13865845 537.38107066 6.13496746 541.10725527 6.12939453 544.83349609 C6.13142159 545.90829507 6.13344866 546.98309404 6.13553715 548.09046268 C6.13271449 549.07078181 6.12989183 550.05110094 6.12698364 551.06112671 C6.12660662 551.90136068 6.12622959 552.74159466 6.12584114 553.60729027 C5.99203579 556.15142942 5.55755236 558.51703629 5 561 C5.99 561.33 6.98 561.66 8 562 C7.01 562 6.02 562 5 562 C5 562.66 5 563.32 5 564 C6.98 563.67 8.96 563.34 11 563 C11 563.66 11 564.32 11 565 C9.02 565.33 7.04 565.66 5 566 C5.00523682 566.66306152 5.01047363 567.32612305 5.01586914 568.00927734 C5.17755602 591.70561457 5.17755602 591.70561457 4.26782227 603.51513672 C4.02261955 606.91696741 4.00894052 609.73028409 5 613 C4.7525 613.928125 4.7525 613.928125 4.5 614.875 C3.82373483 617.74912698 4.49858124 620.11684213 5 623 C4.67 623.66 4.34 624.32 4 625 C4.99 625 5.98 625 7 625 C7 625.66 7 626.32 7 627 C6.01 627 5.02 627 4 627 C4 627.66 4 628.32 4 629 C4.66 629 5.32 629 6 629 C6 629.66 6 630.32 6 631 C5.34 631.33 4.68 631.66 4 632 C4 632.99 4 633.98 4 635 C3.34 635 2.68 635 2 635 C2.02320313 635.90363281 2.04640625 636.80726563 2.0703125 637.73828125 C2.08835937 638.91777344 2.10640625 640.09726562 2.125 641.3125 C2.14820313 642.48425781 2.17140625 643.65601563 2.1953125 644.86328125 C2 648 2 648 0 651 C0 436.17 0 221.34 0 0 Z " fill="#A9A9A3" transform="translate(725,64)"/>
<path d="M0 0 C0.99 0.495 0.99 0.495 2 1 C2.28891106 3.60913493 2.46803699 6.13268342 2.5625 8.75 C2.71087094 14.01039034 2.71087094 14.01039034 3.51147461 19.19335938 C4.19085778 23.0965023 4.10262143 26.90595383 4.0625 30.859375 C4.05871338 31.72201965 4.05492676 32.58466431 4.05102539 33.47344971 C4.0348376 37.14072745 4.00708988 40.80789057 3.97949219 44.47509766 C3.89781926 56.36280718 4.12710975 68.14194179 5 80 C5.66 80 6.32 80 7 80 C7.33 78.68 7.66 77.36 8 76 C8.99 76.33 9.98 76.66 11 77 C11 106.04 11 135.08 11 165 C9.02 165 7.04 165 5 165 C5.33 166.32 5.66 167.64 6 169 C5.34 168.67 4.68 168.34 4 168 C2.70549301 163.83742363 3.08762896 159.8385896 3.4375 155.5625 C4.36091419 142.33275958 4.76797399 128.83159418 3.21484375 115.640625 C2.83663982 110.99215487 3.03506616 106.33413635 3.16015625 101.67578125 C3.14428664 97.98983711 3.14428664 97.98983711 2 94.54296875 C0.18207882 87.90028636 0.83191775 80.83124861 0.9375 74 C0.96534802 71.85352298 0.99006416 69.70712445 1.00868225 67.56054688 C1.02631847 65.61320864 1.05375061 63.66596626 1.08178711 61.71875 C1.01084443 58.49308182 0.66403948 55.4327603 0.22831726 52.24194336 C-0.24405172 47.60355336 -0.1204974 42.93861649 -0.09765625 38.28125 C-0.0962413 37.18276733 -0.09482635 36.08428467 -0.09336853 34.95251465 C-0.08780257 31.46831457 -0.07525639 27.98418042 -0.0625 24.5 C-0.0574806 22.1276051 -0.05291846 19.75520918 -0.04882812 17.3828125 C-0.0378443 11.58851944 -0.0211403 5.79426443 0 0 Z " fill="#E1DBD3" transform="translate(725,14)"/>
<path d="M0 0 C0.33 0 0.66 0 1 0 C1.94521742 10.38051271 2.0783429 20.65735169 1.875 31.07788086 C1.80308919 37.42251187 2.51329369 42.84167679 4 49 C3.67 49.66 3.34 50.32 3 51 C2.92533998 53.40199944 2.90873098 55.77463301 2.9375 58.17578125 C2.94128662 58.89678513 2.94507324 59.617789 2.94897461 60.36064148 C2.96523676 63.44142774 2.99292237 66.52208046 3.02050781 69.6027832 C3.03895718 71.85627588 3.05083498 74.10974465 3.0625 76.36328125 C3.07079834 77.03361893 3.07909668 77.7039566 3.08764648 78.39460754 C3.10841821 82.6283348 2.85723741 86.77709557 2.47306824 90.99406433 C1.95559783 97.59592987 2.04154118 104.0507254 2.33325195 110.66015625 C2.42732773 113.13491044 2.52090695 115.60968354 2.61405945 118.08447266 C2.66517065 119.38088684 2.71628185 120.67730103 2.76894188 122.01300049 C3.7230813 146.38343542 4.21481284 170.73632764 4.23046875 195.125 C4.23091769 195.82386826 4.23136662 196.52273651 4.23182917 197.24278259 C4.23555112 205.69395363 4.22145511 214.14504775 4.20059407 222.5961895 C4.18696234 228.40662903 4.18490614 234.21703154 4.1855461 240.02748489 C4.1862206 247.11658681 4.17933745 254.2056665 4.1700995 261.29476166 C4.16798732 263.29491596 4.16741711 265.29507171 4.16686058 267.29522705 C4.16469638 270.98460889 4.15596381 274.67391557 4.14526367 278.36328125 C4.14571686 279.44538376 4.14617004 280.52748627 4.14663696 281.64237976 C4.12439017 286.87941122 3.86531568 291.83654439 3 297 C2.8591916 299.55949827 2.75562786 302.12123751 2.68359375 304.68359375 C2.66281265 305.38396255 2.64203156 306.08433136 2.62062073 306.80592346 C2.55587535 309.01636106 2.49659392 311.22690485 2.4375 313.4375 C2.39424319 314.94727607 2.35062677 316.45704188 2.30664062 317.96679688 C2.20027252 321.64442196 2.09879998 325.32216291 2 329 C1.34 329 0.68 329 0 329 C0 220.43 0 111.86 0 0 Z " fill="#A6A6A1" transform="translate(725,64)"/>
<path d="M0 0 C0.66 0 1.32 0 2 0 C2.1539547 18.55848397 2.30198646 37.11700617 2.4429636 55.67559338 C2.50855956 64.29262439 2.576095 72.90963206 2.64819336 81.52661133 C2.71102791 89.03699546 2.77022643 96.54739794 2.82505554 104.05784494 C2.85421517 108.03470178 2.88519767 112.0115256 2.92053413 115.98833275 C2.95374052 119.73188309 2.9820828 123.47543884 3.00670624 127.21905518 C3.02130819 129.24704243 3.04105727 131.27499057 3.06095886 133.30293274 C3.06799835 134.51303009 3.07503784 135.72312744 3.08229065 136.96989441 C3.09058679 138.01981662 3.09888292 139.06973883 3.10743046 140.15147686 C3.0045451 142.87948639 2.61863102 145.34584468 2 148 C2.99 148.33 3.98 148.66 5 149 C4.01 149 3.02 149 2 149 C2 149.66 2 150.32 2 151 C3.98 150.67 5.96 150.34 8 150 C8 150.66 8 151.32 8 152 C6.02 152.33 4.04 152.66 2 153 C2.00523682 153.66306152 2.01047363 154.32612305 2.01586914 155.00927734 C2.17755602 178.70561457 2.17755602 178.70561457 1.26782227 190.51513672 C1.02261955 193.91696741 1.00894052 196.73028409 2 200 C1.835 200.61875 1.67 201.2375 1.5 201.875 C0.82373483 204.74912698 1.49858124 207.11684213 2 210 C1.505 210.99 1.505 210.99 1 212 C1.99 212 2.98 212 4 212 C4 212.66 4 213.32 4 214 C3.01 214 2.02 214 1 214 C1 214.66 1 215.32 1 216 C1.66 216 2.32 216 3 216 C3 216.66 3 217.32 3 218 C2.34 218.33 1.68 218.66 1 219 C1 219.99 1 220.98 1 222 C0.34 222 -0.32 222 -1 222 C-0.97679687 222.90363281 -0.95359375 223.80726563 -0.9296875 224.73828125 C-0.91164063 225.91777344 -0.89359375 227.09726562 -0.875 228.3125 C-0.85179687 229.48425781 -0.82859375 230.65601563 -0.8046875 231.86328125 C-1 235 -1 235 -3 238 C-3.32973137 205.18919191 -2.81001826 172.4045557 -2.13027191 139.60171509 C-2.0624858 136.31181088 -1.99632111 133.02187727 -1.93048096 129.73193359 C-1.82474299 124.47551361 -1.71404827 119.2192202 -1.59936714 113.9629879 C-1.55697493 111.99907839 -1.51585604 110.03514092 -1.47608757 108.07117653 C-1.42047597 105.35113707 -1.35951343 102.63126818 -1.29711914 99.91137695 C-1.28201357 99.12249336 -1.266908 98.33360977 -1.25134468 97.52082062 C-1.16451139 93.96730011 -0.97261238 90.49883648 -0.48852539 86.97599792 C0.07818539 82.79509523 0.1337991 78.68694618 0.11352539 74.47265625 C0.11367142 73.66194168 0.11381744 72.85122711 0.1139679 72.01594543 C0.11327718 69.36476871 0.10552458 66.71366429 0.09765625 64.0625 C0.09578908 62.21305378 0.09436659 60.36360705 0.09336853 58.51416016 C0.08956692 53.66777153 0.07975694 48.82141331 0.06866455 43.97503662 C0.05839958 39.02112235 0.05386005 34.06720312 0.04882812 29.11328125 C0.03813239 19.40884088 0.02108452 9.70442298 0 0 Z " fill="#C9C4BE" transform="translate(728,477)"/>
<path d="M0 0 C0.33 0 0.66 0 1 0 C0.98839844 0.87140625 0.97679687 1.7428125 0.96484375 2.640625 C0.92185313 8.31538698 0.91960634 13.91388001 1.5 19.5625 C2.70886392 32.51461345 2.30909991 45.71773746 1.26806641 58.6706543 C0.97120446 62.31837529 0.97120446 62.31837529 1.48359048 65.91465032 C2.06378525 68.2575757 2.13208793 70.32353406 2.14145851 72.73668861 C2.14754965 73.69148601 2.1536408 74.64628341 2.15991652 75.63001406 C2.16157675 76.67609532 2.16323697 77.72217658 2.16494751 78.79995728 C2.17059105 79.91365169 2.1762346 81.0273461 2.18204916 82.17478883 C2.19980085 85.9207207 2.21047904 89.66663952 2.22119141 93.41259766 C2.23240524 96.09331017 2.24400237 98.77401856 2.25605774 101.45472717 C2.28452628 107.99210196 2.30764044 114.52948527 2.3288355 121.06688727 C2.3461759 126.38748786 2.36541127 131.70807846 2.38599777 137.02866745 C2.38892637 137.78615282 2.39185496 138.54363819 2.3948723 139.32407766 C2.40082963 140.86310337 2.40679084 142.40212908 2.41275589 143.94115476 C2.46851027 158.38631506 2.51815401 172.8314915 2.5657609 187.27668063 C2.60665701 199.64085531 2.65292093 212.00500036 2.703125 224.36914062 C2.76148009 238.74108887 2.81630771 253.11304381 2.86572587 267.48502576 C2.87102349 269.02265447 2.8763261 270.56028316 2.88163376 272.09791183 C2.88424359 272.85432939 2.88685343 273.61074694 2.88954235 274.39008624 C2.9080713 279.69014682 2.9290843 284.99019411 2.9510994 290.29024124 C2.9779555 296.77072411 3.0009437 303.25120753 3.01918437 309.73172058 C3.02856618 313.03113111 3.0401435 316.33050638 3.05528831 319.62989616 C3.11761381 333.45943358 3.00653052 347.20296047 2 361 C-0.45616417 357.31575374 -0.23875516 354.59609743 -0.16015625 350.34375 C-0.15463745 349.57687363 -0.14911865 348.80999725 -0.14343262 348.0198822 C-0.13107831 346.37046779 -0.11445931 344.72108092 -0.09402466 343.07174683 C-0.04114132 338.75758283 -0.01899271 334.44333566 0 330.12890625 C0.00414413 329.2669313 0.00828827 328.40495636 0.01255798 327.51686096 C0.03639101 318.702864 -0.2820581 309.91597474 -0.73266602 301.11328125 C-0.78092529 300.10523438 -0.82918457 299.0971875 -0.87890625 298.05859375 C-0.9260376 297.19548584 -0.97316895 296.33237793 -1.02172852 295.44311523 C-1 293 -1 293 -0.50699902 290.79707623 C0.10488465 287.42135912 0.12920865 284.23565708 0.13371277 280.80366516 C0.13597833 280.08894222 0.13824388 279.37421928 0.14057809 278.63783807 C0.14689961 276.24592827 0.14608972 273.85407543 0.14526367 271.4621582 C0.14825766 269.74274116 0.15166074 268.02332479 0.15544128 266.3039093 C0.16429429 261.61863868 0.16662088 256.93338633 0.16725707 252.24810815 C0.16797065 249.29292315 0.17011151 246.33774269 0.17275429 243.38255882 C0.18203514 232.98688849 0.18608865 222.59123097 0.18530273 212.19555664 C0.18477632 203.70172198 0.19165943 195.20793404 0.20581055 186.71411133 C0.22595566 174.38882914 0.23599102 162.06358027 0.23046875 149.73828125 C0.23001981 148.73531966 0.22957088 147.73235806 0.22910833 146.6990037 C0.21074204 118.86165796 -0.09839711 91.07475313 -1.38594055 63.26374817 C-1.85321703 52.97209945 -2.06998906 42.9058027 -1.25740051 32.62812805 C-0.81700333 26.42061377 -0.93253004 20.22072989 -1 14 C-1.02534321 11.54170902 -1.04643223 9.0833691 -1.0625 6.625 C-1.07410156 5.56539063 -1.08570313 4.50578125 -1.09765625 3.4140625 C-1 1 -1 1 0 0 Z " fill="#BFBDB6" transform="translate(728,114)"/>
<path d="M0 0 C0.99 0 1.98 0 3 0 C3.6600951 1.32633063 4.30221603 2.66160815 4.9375 4 C5.29714844 4.7425 5.65679687 5.485 6.02734375 6.25 C8.74116706 13.92281771 8.1830541 22.34569814 8.1875 30.375 C8.19974609 31.56222656 8.21199219 32.74945313 8.22460938 33.97265625 C8.22750977 35.66841797 8.22750977 35.66841797 8.23046875 37.3984375 C8.23457764 38.42630371 8.23868652 39.45416992 8.24291992 40.51318359 C8 43 8 43 6 45 C5.79246094 43.98164063 5.58492188 42.96328125 5.37109375 41.9140625 C3.64161531 33.82836474 1.5080424 26.08507489 -1.5 18.375 C-1.92647827 17.27599365 -1.92647827 17.27599365 -2.36157227 16.15478516 C-4.22460839 11.5223997 -6.43617608 7.28428471 -9 3 C-6.69 3.33 -4.38 3.66 -2 4 C-1.34 2.68 -0.68 1.36 0 0 Z " fill="#21221D" transform="translate(434,403)"/>
<path d="M0 0 C0.99 0.495 0.99 0.495 2 1 C2.28891106 3.60913493 2.46803699 6.13268342 2.5625 8.75 C2.70993906 14.00731351 2.70993906 14.00731351 3.51147461 19.18676758 C4.19547594 23.12567182 4.10252618 26.97541398 4.0625 30.96484375 C4.05871338 31.83460342 4.05492676 32.7043631 4.05102539 33.60047913 C4.03480793 37.30085209 4.00694785 41.0011119 3.97949219 44.70141602 C3.96110844 47.41422766 3.94736728 50.12698804 3.9375 52.83984375 C3.93427734 53.71756439 3.93105469 54.59528503 3.92773438 55.49960327 C3.93247679 61.80679786 4.26201247 68.00750807 4.87890625 74.28735352 C4.99279558 76.83861219 4.71166899 78.57857382 4 81 C3.90705494 83.16507316 3.87002968 85.33293843 3.875 87.5 C3.87242187 88.6240625 3.86984375 89.748125 3.8671875 90.90625 C3.97733633 93.4720699 4.24729338 95.56266427 5 98 C4.34 98 3.68 98 3 98 C0.3842682 90.12203129 0.8108229 82.1961009 0.9375 74 C0.96534802 71.85352298 0.99006416 69.70712445 1.00868225 67.56054688 C1.02631847 65.61320864 1.05375061 63.66596626 1.08178711 61.71875 C1.01084443 58.49308182 0.66403948 55.4327603 0.22831726 52.24194336 C-0.24405172 47.60355336 -0.1204974 42.93861649 -0.09765625 38.28125 C-0.0962413 37.18276733 -0.09482635 36.08428467 -0.09336853 34.95251465 C-0.08780257 31.46831457 -0.07525639 27.98418042 -0.0625 24.5 C-0.0574806 22.1276051 -0.05291846 19.75520918 -0.04882812 17.3828125 C-0.0378443 11.58851944 -0.0211403 5.79426443 0 0 Z " fill="#C0BDB6" transform="translate(725,14)"/>
<path d="M0 0 C3.63259283 3.54112467 6.9948051 7.23225611 10.25 11.125 C10.72163574 11.68614502 11.19327148 12.24729004 11.67919922 12.82543945 C13.12324122 14.54718184 14.56262934 16.2726855 16 18 C16.67627441 18.81235107 16.67627441 18.81235107 17.36621094 19.64111328 C24.79002219 28.58004437 24.79002219 28.58004437 26 31 C25.38125 31.350625 24.7625 31.70125 24.125 32.0625 C21.24445747 34.68887702 20.84537162 37.26627537 20 41 C12.9679281 34.64982598 9.35395314 24.89441398 6.19921875 16.1953125 C4.65180286 12.07223041 2.80928101 8.1191967 0.91796875 4.14453125 C0 2 0 2 0 0 Z " fill="#232321" transform="translate(368,87)"/>
<path d="M0 0 C0.66 0 1.32 0 2 0 C2.1539547 18.55848397 2.30198646 37.11700617 2.4429636 55.67559338 C2.50855956 64.29262439 2.576095 72.90963206 2.64819336 81.52661133 C2.71102791 89.03699546 2.77022643 96.54739794 2.82505554 104.05784494 C2.85421517 108.03470178 2.88519767 112.0115256 2.92053413 115.98833275 C2.95374052 119.73188309 2.9820828 123.47543884 3.00670624 127.21905518 C3.02130819 129.24704243 3.04105727 131.27499057 3.06095886 133.30293274 C3.06799835 134.51303009 3.07503784 135.72312744 3.08229065 136.96989441 C3.09058679 138.01981662 3.09888292 139.06973883 3.10743046 140.15147686 C3.0045451 142.87948639 2.61863102 145.34584468 2 148 C2.99 148.33 3.98 148.66 5 149 C4.01 149 3.02 149 2 149 C2 149.66 2 150.32 2 151 C3.98 150.67 5.96 150.34 8 150 C8 150.66 8 151.32 8 152 C6.02 152.33 4.04 152.66 2 153 C2 157.95 2 162.9 2 168 C1.67 168 1.34 168 1 168 C-0.17560054 150.70231819 -0.13283267 133.41360066 -0.10139394 116.08661556 C-0.09505618 111.99209197 -0.09454849 107.89756729 -0.09336853 103.80303955 C-0.09028547 96.0830178 -0.08211373 88.36301055 -0.07201904 80.64299512 C-0.06076284 71.83979877 -0.05532372 63.03660165 -0.05032361 54.23339987 C-0.03992787 36.15559175 -0.02238831 18.07779705 0 0 Z " fill="#C6C3BC" transform="translate(728,477)"/>
<path d="M0 0 C0.33 0 0.66 0 1 0 C1.06943466 11.8130765 1.12277803 23.62610464 1.15543652 35.43934345 C1.17110899 40.92439786 1.19237618 46.40931291 1.22631836 51.89428711 C1.2588553 57.1851406 1.27684109 62.47585985 1.28463173 67.76680565 C1.29018543 69.78788556 1.30103011 71.80895792 1.31719017 73.82998085 C1.3388891 76.65545296 1.34197008 79.48036652 1.34057617 82.3059082 C1.35675491 83.56610527 1.35675491 83.56610527 1.3732605 84.85176086 C1.34241803 90.6090221 1.34241803 90.6090221 -0.52254772 92.73846722 C-1.01010697 93.15477304 -1.49766623 93.57107885 -2 94 C-4 92 -4 92 -4.22705078 88.92724609 C-4.21657715 87.63898926 -4.20610352 86.35073242 -4.1953125 85.0234375 C-4.1924826 84.33819 -4.18965271 83.6529425 -4.18673706 82.94692993 C-4.17553281 80.75610973 -4.15042859 78.56569684 -4.125 76.375 C-4.11497048 74.8906309 -4.10584458 73.4062554 -4.09765625 71.921875 C-4.07559294 68.28111739 -4.04106176 64.64059844 -4 61 C-3.01 61 -2.02 61 -1 61 C-0.67 40.87 -0.34 20.74 0 0 Z " fill="#E0E0DE" transform="translate(513,496)"/>
<path d="M0 0 C1.828125 0.57421875 1.828125 0.57421875 4 2 C5.484375 5.08203125 5.484375 5.08203125 6.75 8.8125 C7.39195312 10.64748047 7.39195312 10.64748047 8.046875 12.51953125 C9 16 9 16 9 21 C4.05 21 -0.9 21 -6 21 C-5.55355616 13.41045469 -2.88499438 6.98360263 0 0 Z " fill="#F0F1EC" transform="translate(357,528)"/>
<path d="M0 0 C0.33 0 0.66 0 1 0 C1.02316712 9.57931491 1.04093741 19.15862019 1.05181217 28.737957 C1.05703142 33.18599181 1.06411172 37.63400747 1.07543945 42.08203125 C1.08630232 46.37436359 1.09228407 50.6666775 1.09487724 54.95902252 C1.09672535 56.59687846 1.1003342 58.23473339 1.10573006 59.87258148 C1.11298556 62.16605309 1.11398903 64.45944845 1.11352539 66.75292969 C1.115746 68.05864929 1.11796661 69.3643689 1.12025452 70.70965576 C1.0223303 73.38900953 0.73262195 75.45717012 0 78 C-0.01993415 79.97917593 0.00734161 81.95899241 0.0625 83.9375 C0.15532223 93.68383457 -0.95801215 103.32004369 -2 113 C-2.33 113 -2.66 113 -3 113 C-2.7616301 99.30011728 -2.5185613 85.60032675 -2.26950932 71.90063381 C-2.15400938 65.53918147 -2.04012233 59.17770881 -1.92993164 52.81616211 C-1.82351344 46.67584628 -1.712845 40.53562037 -1.59924126 34.39543343 C-1.55666464 32.05394246 -1.51561421 29.71242323 -1.4761219 27.37087822 C-1.42050611 24.08887954 -1.35944327 20.80702369 -1.29711914 17.52514648 C-1.28201294 16.55913513 -1.26690674 15.59312378 -1.25134277 14.59783936 C-1.1512784 9.64203698 -0.8281024 4.8887989 0 0 Z " fill="#BCBAB3" transform="translate(728,561)"/>
<path d="M0 0 C4.62 0 9.24 0 14 0 C14 0.66 14 1.32 14 2 C15.98 2 17.96 2 20 2 C19.67 2.66 19.34 3.32 19 4 C17.02 4 15.04 4 13 4 C13 4.66 13 5.32 13 6 C14.98 5.67 16.96 5.34 19 5 C19 5.66 19 6.32 19 7 C17.35 7.33 15.7 7.66 14 8 C14 8.99 14 9.98 14 11 C28.19 11 42.38 11 57 11 C57 11.33 57 11.66 57 12 C29.28 12 1.56 12 -27 12 C-27 11.67 -27 11.34 -27 11 C-14.79 10.67 -2.58 10.34 10 10 C7.03 9.67 4.06 9.34 1 9 C1.33 8.34 1.66 7.68 2 7 C3.32 7 4.64 7 6 7 C6 6.34 6 5.68 6 5 C4.35 5.33 2.7 5.66 1 6 C1 4 1 4 3 2 C2.01 2 1.02 2 0 2 C0 1.34 0 0.68 0 0 Z " fill="#E8E4DC" transform="translate(335,0)"/>
<path d="M0 0 C0 0.99 0 1.98 0 3 C-1.32 3 -2.64 3 -4 3 C-4.33 4.32 -4.66 5.64 -5 7 C-2.03 7.495 -2.03 7.495 1 8 C0.67 8.99 0.34 9.98 0 11 C0.66 11 1.32 11 2 11 C2.33 10.01 2.66 9.02 3 8 C3.33 8 3.66 8 4 8 C4 9.98 4 11.96 4 14 C3.01 14.33 2.02 14.66 1 15 C1.66 15.33 2.32 15.66 3 16 C3 16.66 3 17.32 3 18 C2.34 18 1.68 18 1 18 C1 18.99 1 19.98 1 21 C0.01 21.66 -0.98 22.32 -2 23 C-2.66 23.66 -3.32 24.32 -4 25 C-4.99 25 -5.98 25 -7 25 C-7.08703823 21.56265937 -7.14040272 18.12560163 -7.1875 14.6875 C-7.21263672 13.71103516 -7.23777344 12.73457031 -7.26367188 11.72851562 C-7.27333984 10.79072266 -7.28300781 9.85292969 -7.29296875 8.88671875 C-7.3086792 8.02264404 -7.32438965 7.15856934 -7.34057617 6.26831055 C-6.92668958 3.51173687 -6.18661671 2.67204105 -4 1 C-1.8125 0.3125 -1.8125 0.3125 0 0 Z " fill="#E3DDD4" transform="translate(7,521)"/>
<path d="M0 0 C0.66 0 1.32 0 2 0 C3.38331399 1.96576199 4.70768468 3.97325411 6 6 C11.18952647 13.10802054 16.56445683 20.07885821 22 27 C19.31158141 29.25245881 17.35358125 30.88213958 14 32 C12.32642805 28.24687551 10.65410556 24.49319702 8.98291016 20.73901367 C8.4148893 19.46347224 7.84653459 18.18807943 7.27783203 16.9128418 C6.45776815 15.07380187 5.63902679 13.23417239 4.8203125 11.39453125 C4.32805176 10.28956299 3.83579102 9.18459473 3.32861328 8.04614258 C2.16651802 5.38177975 1.06119893 2.70583711 0 0 Z " fill="#1C1C19" transform="translate(337,80)"/>
<path d="M0 0 C3.13714671 3.77026702 5.83145931 7.72925481 8.4375 11.875 C11.49440673 16.68885806 14.61197187 21.40976834 18 26 C17.67 26.66 17.34 27.32 17 28 C9.52992682 21.35150847 2.52570688 14.59684563 -4 7 C-3.525625 6.401875 -3.05125 5.80375 -2.5625 5.1875 C-0.83534256 2.99617076 -0.83534256 2.99617076 0 0 Z " fill="#E7E7E3" transform="translate(387,128)"/>
<path d="M0 0 C0.99 0.33 1.98 0.66 3 1 C2.01 1.495 2.01 1.495 1 2 C1.66 2.66 2.32 3.32 3 4 C3.99 3.67 4.98 3.34 6 3 C6 3.99 6 4.98 6 6 C6.99 6 7.98 6 9 6 C9 6.66 9 7.32 9 8 C7.02 8 5.04 8 3 8 C4.98 8.66 6.96 9.32 9 10 C9 10.66 9 11.32 9 12 C8.34 12 7.68 12 7 12 C7 12.66 7 13.32 7 14 C7.99 14 8.98 14 10 14 C10 15.32 10 16.64 10 18 C8.02 17.67 6.04 17.34 4 17 C4 16.34 4 15.68 4 15 C2.02 15.99 0.04 16.98 -2 18 C-2 12.39 -2 6.78 -2 1 C-1.34 0.67 -0.68 0.34 0 0 Z " fill="#E5DFD7" transform="translate(2,503)"/>
<path d="M0 0 C0.33 0 0.66 0 1 0 C1.94521742 10.38051271 2.0783429 20.65735169 1.875 31.07788086 C1.80308919 37.42251187 2.51329369 42.84167679 4 49 C3.67 49.66 3.34 50.32 3 51 C2.92536853 53.42533628 2.90871209 55.82160364 2.9375 58.24609375 C2.94128662 58.97184097 2.94507324 59.6975882 2.94897461 60.44532776 C2.96526003 63.54817722 2.99303522 66.65089446 3.02050781 69.75366211 C3.09185011 78.56349724 3.07170216 87.23620345 2 96 C1.67 96 1.34 96 1 96 C0.32953055 63.99667157 -0.17572015 32.01080409 0 0 Z " fill="#B1B0A9" transform="translate(725,64)"/>
<path d="M0 0 C16.17 0 32.34 0 49 0 C48.67 0.99 48.34 1.98 48 3 C34.8 3 21.6 3 8 3 C8.66 3.66 9.32 4.32 10 5 C9.01 5.495 9.01 5.495 8 6 C6.0546875 5.22265625 6.0546875 5.22265625 3.875 4.0625 C3.15054688 3.68222656 2.42609375 3.30195313 1.6796875 2.91015625 C1.12539062 2.60980469 0.57109375 2.30945313 0 2 C0 1.34 0 0.68 0 0 Z " fill="#1F1F1C" transform="translate(174,483)"/>
<path d="M0 0 C0.99 0.33 1.98 0.66 3 1 C2.34 1 1.68 1 1 1 C1 1.66 1 2.32 1 3 C2.32 3 3.64 3 5 3 C5 3.66 5 4.32 5 5 C6.98 4.67 8.96 4.34 11 4 C11 6.97 11 9.94 11 13 C7.7 13 4.4 13 1 13 C1.33 11.68 1.66 10.36 2 9 C1.34 9 0.68 9 0 9 C0 9.99 0 10.98 0 12 C-1.32 11.67 -2.64 11.34 -4 11 C-2.875 9.5 -2.875 9.5 -1 8 C2.1875 7.8125 2.1875 7.8125 5 8 C5 7.34 5 6.68 5 6 C2.02148438 6.09765625 2.02148438 6.09765625 -0.95703125 6.1953125 C-3 6 -3 6 -6 4 C-4.02 3.34 -2.04 2.68 0 2 C0 1.34 0 0.68 0 0 Z " fill="#E8E3DA" transform="translate(725,723)"/>
<path d="M0 0 C0.33 0 0.66 0 1 0 C2.84925599 38.94749525 2.84925599 38.94749525 0 55 C-0.33 55 -0.66 55 -1 55 C-1.02526605 47.32788798 -1.04283123 39.6557866 -1.05493164 31.98364258 C-1.05997377 29.37133381 -1.06680725 26.75902789 -1.07543945 24.14672852 C-1.08751036 20.40119732 -1.09322935 16.65570328 -1.09765625 12.91015625 C-1.10281754 11.73413345 -1.10797882 10.55811066 -1.11329651 9.34645081 C-1.11340981 7.72488319 -1.11340981 7.72488319 -1.11352539 6.07055664 C-1.115746 5.11347305 -1.11796661 4.15638947 -1.12025452 3.17030334 C-1 1 -1 1 0 0 Z " fill="#A3A39D" transform="translate(726,439)"/>
<path d="M0 0 C0.33 0 0.66 0 1 0 C1 15.84 1 31.68 1 48 C0.34 48 -0.32 48 -1 48 C-1.66 45.03 -2.32 42.06 -3 39 C-2.34 39 -1.68 39 -1 39 C-1.00523682 38.06728271 -1.01047363 37.13456543 -1.01586914 36.17358398 C-1.03299302 32.68659843 -1.04548993 29.1996581 -1.05493164 25.71264648 C-1.05993555 24.2084075 -1.06674073 22.70417332 -1.07543945 21.19995117 C-1.08767884 19.02781991 -1.09326786 16.85575341 -1.09765625 14.68359375 C-1.10289307 13.37962646 -1.10812988 12.07565918 -1.11352539 10.73217773 C-1.00145975 7.04798967 -0.59374786 3.63028534 0 0 Z " fill="#B2B0AA" transform="translate(728,354)"/>
<path d="M0 0 C7.32508095 3.09970018 13.83907325 11.79723249 17 19 C16.67 19.66 16.34 20.32 16 21 C1.72232846 8.58962956 1.72232846 8.58962956 -1 4 C-0.67578125 1.76953125 -0.67578125 1.76953125 0 0 Z " fill="#EAEAE8" transform="translate(452,207)"/>
<path d="M0 0 C0.99 0.495 0.99 0.495 2 1 C2.28891106 3.60913493 2.46803699 6.13268342 2.5625 8.75 C2.731914 14.08251811 2.731914 14.08251811 3.50927734 19.34741211 C4.07669505 22.41457301 4.11243791 25.27560036 4.09765625 28.39453125 C4.09443359 29.59658203 4.09121094 30.79863281 4.08789062 32.03710938 C4.07951172 33.28298828 4.07113281 34.52886719 4.0625 35.8125 C4.05798828 37.07771484 4.05347656 38.34292969 4.04882812 39.64648438 C4.03706251 42.7643711 4.02062272 45.88216133 4 49 C3.34 49 2.68 49 2 49 C2 39.76 2 30.52 2 21 C1.34 21 0.68 21 0 21 C0 14.07 0 7.14 0 0 Z " fill="#CEC8C2" transform="translate(725,14)"/>
<path d="M0 0 C0.33 0.66 0.66 1.32 1 2 C1.99 2.33 2.98 2.66 4 3 C4.125 9.625 4.125 9.625 3 13 C1.68 13 0.36 13 -1 13 C-1 13.66 -1 14.32 -1 15 C-1.66 15 -2.32 15 -3 15 C-3.33 14.01 -3.66 13.02 -4 12 C-4.99 11.34 -5.98 10.68 -7 10 C-6.34 9.34 -5.68 8.68 -5 8 C-4.67 7.34 -4.34 6.68 -4 6 C-2.68 6 -1.36 6 0 6 C0 5.34 0 4.68 0 4 C-1.65 4 -3.3 4 -5 4 C-5 4.66 -5 5.32 -5 6 C-5.99 5.67 -6.98 5.34 -8 5 C-5.31158141 2.74754119 -3.35358125 1.11786042 0 0 Z " fill="#E1DBD2" transform="translate(8,148)"/>
<path d="M0 0 C0.33 0.66 0.66 1.32 1 2 C4.3 1.34 7.6 0.68 11 0 C11 5.61 11 11.22 11 17 C10.67 17 10.34 17 10 17 C10 13.37 10 9.74 10 6 C9.34 6 8.68 6 8 6 C7.67 6.99 7.34 7.98 7 9 C6.67 8.34 6.34 7.68 6 7 C2.45481116 8.39759905 2.45481116 8.39759905 -1 10 C-1.02689216 8.52093108 -1.04634621 7.04172517 -1.0625 5.5625 C-1.07410156 4.73878906 -1.08570312 3.91507812 -1.09765625 3.06640625 C-1 1 -1 1 0 0 Z " fill="#E5E0D7" transform="translate(1,87)"/>
<path d="M0 0 C0.33 0.99 0.66 1.98 1 3 C23.77 3 46.54 3 70 3 C70.33 2.34 70.66 1.68 71 1 C71 1.99 71 2.98 71 4 C45.92 4 20.84 4 -5 4 C-3.74458443 1.48916886 -2.49936512 1.12874554 0 0 Z " fill="#E8E6DE" transform="translate(654,8)"/>
<path d="M0 0 C1.5703125 1.65234375 1.5703125 1.65234375 3 4 C2.7421875 6.69140625 2.7421875 6.69140625 1.875 9.5625 C1.60429687 10.51253906 1.33359375 11.46257813 1.0546875 12.44140625 C0.00895862 14.97826704 -0.87887413 16.29736653 -3 18 C-3.33 18 -3.66 18 -4 18 C-5.13764351 13.73383684 -6 10.43513689 -6 6 C-4 4 -4 4 -1 3 C-0.67 2.01 -0.34 1.02 0 0 Z " fill="#F2F3ED" transform="translate(298,573)"/>
<path d="M0 0 C4.5362892 4.5362892 3.05797776 14.57557626 3.125 20.75 C3.04503999 31.50462138 2.4721656 42.25697677 2 53 C1.67 53 1.34 53 1 53 C0.14490528 40.9621558 -0.12757358 29.00312429 -0.0625 16.9375 C-0.05746482 15.28060034 -0.05290555 13.62369917 -0.04882812 11.96679688 C-0.03800562 7.97782584 -0.02085757 3.98893065 0 0 Z " fill="#D8D2CB" transform="translate(728,36)"/>
<path d="M0 0 C0.33 0 0.66 0 1 0 C0.99476318 1.13018555 0.98952637 2.26037109 0.98413086 3.42480469 C0.96601774 7.62173672 0.95454488 11.81866531 0.94506836 16.015625 C0.94004259 17.83138612 0.93322097 19.6471432 0.92456055 21.46289062 C0.91241811 24.0742289 0.90675409 26.68551362 0.90234375 29.296875 C0.89718246 30.10743347 0.89202118 30.91799194 0.88670349 31.75311279 C0.88634704 35.3420417 1.02954053 38.54740786 2 42 C1.34 42 0.68 42 0 42 C-0.33 42.66 -0.66 43.32 -1 44 C-1.02473065 38.37663086 -1.04287459 32.75329343 -1.05493164 27.12988281 C-1.05995841 25.21711679 -1.06678077 23.3043546 -1.07543945 21.39160156 C-1.08757748 18.6412664 -1.0932449 15.89098207 -1.09765625 13.140625 C-1.10281754 12.28631897 -1.10797882 11.43201294 -1.11329651 10.55181885 C-1.11337204 9.75129089 -1.11344757 8.95076294 -1.11352539 8.12597656 C-1.115746 7.42426331 -1.11796661 6.72255005 -1.12025452 5.99957275 C-0.9936281 3.89404912 -0.57320021 2.02592372 0 0 Z " fill="#B2B0AA" transform="translate(728,435)"/>
<path d="M0 0 C3.53191322 3.43153914 6.7137505 6.97375062 9.8125 10.8125 C10.60269531 11.78832031 11.39289063 12.76414062 12.20703125 13.76953125 C13.09455078 14.87361328 13.09455078 14.87361328 14 16 C12.35 17.32 10.7 18.64 9 20 C6.75232407 16.6284861 5.07945264 13.09930172 3.375 9.4375 C3.05015625 8.75236328 2.7253125 8.06722656 2.390625 7.36132812 C0 2.24358259 0 2.24358259 0 0 Z " fill="#242521" transform="translate(368,87)"/>
<path d="M0 0 C2 1 2 1 2 1 Z M7 0 C7.66 0 8.32 0 9 0 C9 7.26 9 14.52 9 22 C7.68 21.67 6.36 21.34 5 21 C5.33 20.67 5.66 20.34 6 20 C5.34 19.34 4.68 18.68 4 18 C4.99 17.67 5.98 17.34 7 17 C7.33 14.03 7.66 11.06 8 8 C6.35 8 4.7 8 3 8 C2.67 7.34 2.34 6.68 2 6 C-0.52733235 5.34444881 -0.52733235 5.34444881 -3 5 C-3 4.34 -3 3.68 -3 3 C-2.34 3 -1.68 3 -1 3 C-0.67 2.34 -0.34 1.68 0 1 C0 1.66 0 2.32 0 3 C2.31 3 4.62 3 7 3 C7 2.01 7 1.02 7 0 Z " fill="#E9E4DC" transform="translate(3,575)"/>
<path d="M0 0 C2.81337656 2.72623658 5.33582357 5.540219 7.75 8.625 C8.36359375 9.40101563 8.9771875 10.17703125 9.609375 10.9765625 C11 13 11 13 11 15 C8.36 15 5.72 15 3 15 C1.875 11.25 1.875 11.25 3 9 C2.505 8.443125 2.01 7.88625 1.5 7.3125 C-0.24754367 4.61837017 -0.26218749 3.14624993 0 0 Z " fill="#252622" transform="translate(490,229)"/>
<path d="M0 0 C0 0.99 0 1.98 0 3 C0.66 3 1.32 3 2 3 C2.33 4.32 2.66 5.64 3 7 C1.71086513 7.67154933 0.41859796 8.33708859 -0.875 9 C-1.59429688 9.37125 -2.31359375 9.7425 -3.0546875 10.125 C-5 11 -5 11 -7 11 C-7.3125 8.3125 -7.3125 8.3125 -7 5 C-2.86956522 0 -2.86956522 0 0 0 Z " fill="#E5DFD7" transform="translate(7,95)"/>
<path d="M0 0 C0 0.66 0 1.32 0 2 C-2.31 2 -4.62 2 -7 2 C-7.33 3.65 -7.66 5.3 -8 7 C-7.34 7.33 -6.68 7.66 -6 8 C-6.66 8 -7.32 8 -8 8 C-8 9.32 -8 10.64 -8 12 C-7.34 12.33 -6.68 12.66 -6 13 C-5.875 16.375 -5.875 16.375 -6 20 C-6.66 20.66 -7.32 21.32 -8 22 C-8.99 21.67 -9.98 21.34 -11 21 C-10.72350393 17.68604792 -10.42627566 14.37428395 -10.125 11.0625 C-10.00705078 9.64420898 -10.00705078 9.64420898 -9.88671875 8.19726562 C-9.80292969 7.29814453 -9.71914063 6.39902344 -9.6328125 5.47265625 C-9.55949707 4.64000244 -9.48618164 3.80734863 -9.41064453 2.94946289 C-9.20737549 1.98447876 -9.20737549 1.98447876 -9 1 C-6.04335481 -0.4783226 -3.25770263 -0.06032783 0 0 Z " fill="#D9D3CC" transform="translate(736,698)"/>
<path d="M0 0 C2.97 0 5.94 0 9 0 C8.34 0.66 7.68 1.32 7 2 C8.32 2.33 9.64 2.66 11 3 C11 5.97 11 8.94 11 12 C9.35 11.67 7.7 11.34 6 11 C7.32 10.67 8.64 10.34 10 10 C10 8.35 10 6.7 10 5 C6.7 5.33 3.4 5.66 0 6 C0 4.02 0 2.04 0 0 Z " fill="#DCD7CF" transform="translate(0,580)"/>
<path d="M0 0 C2.31 0.66 4.62 1.32 7 2 C6 5 6 5 3.625 6.1875 C1 7 1 7 -2 7 C-2 7.66 -2 8.32 -2 9 C-3.65 9 -5.3 9 -7 9 C-6.45276317 5.62537285 -5.9451 3.91765 -4 1 C-3.34 2.32 -2.68 3.64 -2 5 C-1.34 5 -0.68 5 0 5 C0 3.35 0 1.7 0 0 Z " fill="#181815" transform="translate(493,320)"/>
<path d="M0 0 C1.32 0 2.64 0 4 0 C4 8.91 4 17.82 4 27 C3.67 27 3.34 27 3 27 C3 22.38 3 17.76 3 13 C1.68 14.32 0.36 15.64 -1 17 C-1 16.34 -1 15.68 -1 15 C-1.99 15 -2.98 15 -4 15 C-4 14.34 -4 13.68 -4 13 C-3.01 12.67 -2.02 12.34 -1 12 C0.20882096 9.99983534 0.20882096 9.99983534 1 8 C1.66 8 2.32 8 3 8 C2.65555119 5.52733235 2.65555119 5.52733235 2 3 C1.34 2.67 0.68 2.34 0 2 C0 1.34 0 0.68 0 0 Z " fill="#EAE5DE" transform="translate(8,124)"/>
<path d="M0 0 C0.66 0.33 1.32 0.66 2 1 C0.02 1.99 0.02 1.99 -2 3 C-2 3.66 -2 4.32 -2 5 C0.97 5.495 0.97 5.495 4 6 C3.67 6.66 3.34 7.32 3 8 C2.34 8 1.68 8 1 8 C0.67 8.66 0.34 9.32 0 10 C-8.25 10 -16.5 10 -25 10 C-25 9.67 -25 9.34 -25 9 C-18.07 9 -11.14 9 -4 9 C-3.67 7.68 -3.34 6.36 -3 5 C-3.99 4.67 -4.98 4.34 -6 4 C-4.02 2.68 -2.04 1.36 0 0 Z " fill="#EAE4DD" transform="translate(172,2)"/>
<path d="M0 0 C1.65 0 3.3 0 5 0 C5 0.33 5 0.66 5 1 C19.19 1.33 33.38 1.66 48 2 C48 2.33 48 2.66 48 3 C31.83 3 15.66 3 -1 3 C-0.67 2.01 -0.34 1.02 0 0 Z " fill="#EAE8E1" transform="translate(480,9)"/>
<path d="M0 0 C0.33 0 0.66 0 1 0 C1 2.31 1 4.62 1 7 C0.34 7 -0.32 7 -1 7 C-1.226875 7.639375 -1.45375 8.27875 -1.6875 8.9375 C-3 11 -3 11 -5.625 11.75 C-6.40875 11.8325 -7.1925 11.915 -8 12 C-8 9.69 -8 7.38 -8 5 C-6.865625 4.731875 -5.73125 4.46375 -4.5625 4.1875 C-3.386875 3.795625 -2.21125 3.40375 -1 3 C-0.67 2.01 -0.34 1.02 0 0 Z " fill="#E6E1D8" transform="translate(8,264)"/>
<path d="M0 0 C0.33 0 0.66 0 1 0 C1 5.61 1 11.22 1 17 C0.67 17 0.34 17 0 17 C-0.33 14.69 -0.66 12.38 -1 10 C-1.66 10 -2.32 10 -3 10 C-3 9.34 -3 8.68 -3 8 C-6.96 9.98 -6.96 9.98 -11 12 C-11 10.68 -11 9.36 -11 8 C-4.25 4.125 -4.25 4.125 -2 3 C-2 3.99 -2 4.98 -2 6 C-1.34 6 -0.68 6 0 6 C0 4.02 0 2.04 0 0 Z " fill="#E8E4DC" transform="translate(11,23)"/>
<path d="M0 0 C0 2.64 0 5.28 0 8 C-0.99 8 -1.98 8 -3 8 C-2.67 9.32 -2.34 10.64 -2 12 C-3.32 11.67 -4.64 11.34 -6 11 C-5.34 10.67 -4.68 10.34 -4 10 C-4 9.34 -4 8.68 -4 8 C-5.65 9.32 -7.3 10.64 -9 12 C-9 8.09161134 -7.49432124 6.88405893 -5 4 C-5.66 4 -6.32 4 -7 4 C-6.67 3.01 -6.34 2.02 -6 1 C-1.125 0 -1.125 0 0 0 Z " fill="#E8E2DB" transform="translate(12,12)"/>
<path d="M0 0 C0.66 0.33 1.32 0.66 2 1 C1.67 1.99 1.34 2.98 1 4 C4.63 4 8.26 4 12 4 C12 4.66 12 5.32 12 6 C9.94921875 6.22786458 7.8984375 6.45572917 5.84765625 6.68359375 C3.98859771 6.81886614 3.98859771 6.81886614 3 8 C-0.36629251 8.14636054 -2.78419562 8.07193479 -6 7 C-6.66 7 -7.32 7 -8 7 C-8 6.34 -8 5.68 -8 5 C-6.865625 4.54625 -5.73125 4.0925 -4.5625 3.625 C-0.95278308 2.42904194 -0.95278308 2.42904194 0 0 Z " fill="#DED9D0" transform="translate(96,728)"/>
<path d="M0 0 C2.4375 0.1875 2.4375 0.1875 5 1 C6.375 2.875 6.375 2.875 7 5 C6.67 5.99 6.34 6.98 6 8 C5.34 8 4.68 8 4 8 C4 8.66 4 9.32 4 10 C3.34 10 2.68 10 2 10 C2 8.68 2 7.36 2 6 C0.68 5.67 -0.64 5.34 -2 5 C-1.125 1.125 -1.125 1.125 0 0 Z " fill="#1F201D" transform="translate(379,104)"/>
<path d="M0 0 C0 2.64 0 5.28 0 8 C-0.66 8 -1.32 8 -2 8 C-1.67 8.99 -1.34 9.98 -1 11 C-1.99 11.495 -1.99 11.495 -3 12 C-3.99 11.67 -4.98 11.34 -6 11 C-6 8.69 -6 6.38 -6 4 C-5.01 4.33 -4.02 4.66 -3 5 C-3 4.34 -3 3.68 -3 3 C-3.66 3 -4.32 3 -5 3 C-5 2.34 -5 1.68 -5 1 C-3 0 -3 0 0 0 Z " fill="#E6DFD8" transform="translate(736,153)"/>
<path d="M0 0 C6 3 6 3 7.0625 5 C7 7 7 7 5.5625 8.75 C4.7890625 9.36875 4.7890625 9.36875 4 10 C4 9.34 4 8.68 4 8 C3.01 8.495 3.01 8.495 2 9 C1.34227572 12.02934491 1.34227572 12.02934491 1 15 C0.01 14.67 -0.98 14.34 -2 14 C-1.34 14 -0.68 14 0 14 C0 9.38 0 4.76 0 0 Z " fill="#353632" transform="translate(322,124)"/>
<path d="M0 0 C1.32 0.33 2.64 0.66 4 1 C3.67 2.32 3.34 3.64 3 5 C3.763125 4.505 4.52625 4.01 5.3125 3.5 C8 2 8 2 11 2 C11 3.32 11 4.64 11 6 C5.555 7.485 5.555 7.485 0 9 C0 6.03 0 3.06 0 0 Z " fill="#E0DDD2" transform="translate(0,665)"/>
<path d="M0 0 C1.32 0.66 2.64 1.32 4 2 C4 4.64 4 7.28 4 10 C2.68 10.33 1.36 10.66 0 11 C-0.33 10.01 -0.66 9.02 -1 8 C-1.66 8.66 -2.32 9.32 -3 10 C-3.99 10 -4.98 10 -6 10 C-6 9.34 -6 8.68 -6 8 C-4.46875 6.7109375 -4.46875 6.7109375 -2.5 5.375 C-1.8503125 4.92898438 -1.200625 4.48296875 -0.53125 4.0234375 C0.22671875 3.51683594 0.22671875 3.51683594 1 3 C0.67 2.01 0.34 1.02 0 0 Z " fill="#E7E1DB" transform="translate(8,685)"/>
<path d="M0 0 C0 0.66 0 1.32 0 2 C0.66 2.33 1.32 2.66 2 3 C0.5459375 3.61875 0.5459375 3.61875 -0.9375 4.25 C-4.12260099 5.64899168 -4.12260099 5.64899168 -4.875 8.1875 C-4.91625 8.785625 -4.9575 9.38375 -5 10 C-5.66 9.67 -6.32 9.34 -7 9 C-7 6.03 -7 3.06 -7 0 C-3.86650268 -1.04449911 -3.01031744 -0.93423645 0 0 Z " fill="#E3DDD4" transform="translate(7,606)"/>
<path d="M0 0 C0 1.98 0 3.96 0 6 C-1.8125 6.625 -1.8125 6.625 -4 7 C-4.99 6.34 -5.98 5.68 -7 5 C-7 4.34 -7 3.68 -7 3 C-8.65 3 -10.3 3 -12 3 C-12 2.34 -12 1.68 -12 1 C-7.53763531 -0.80619523 -4.68965706 -1.11658501 0 0 Z " fill="#E8E3DB" transform="translate(12,300)"/>
<path d="M0 0 C1.09658936 3.28976808 0.79953138 4.71303767 0 8 C0.99 8.33 1.98 8.66 3 9 C2.01 9 1.02 9 0 9 C0 9.66 0 10.32 0 11 C1.98 10.67 3.96 10.34 6 10 C6 10.66 6 11.32 6 12 C4.02 12.33 2.04 12.66 0 13 C0 17.95 0 22.9 0 28 C-0.33 28 -0.66 28 -1 28 C-1.22882241 24.83447255 -1.42924138 21.66773036 -1.625 18.5 C-1.68945312 17.613125 -1.75390625 16.72625 -1.8203125 15.8125 C-2.1575002 10.08030906 -1.68231076 5.49640463 0 0 Z " fill="#D6D2C9" transform="translate(730,617)"/>
<path d="M0 0 C0.33 0 0.66 0 1 0 C1.02688151 1.64574566 1.04634123 3.29161413 1.0625 4.9375 C1.07410156 5.85402344 1.08570313 6.77054688 1.09765625 7.71484375 C1 10 1 10 0 11 C-1.70772358 11.08713831 -3.41898649 11.10700007 -5.12890625 11.09765625 C-6.68061523 11.09282227 -6.68061523 11.09282227 -8.26367188 11.08789062 C-9.35228516 11.07951172 -10.44089844 11.07113281 -11.5625 11.0625 C-13.2012207 11.05573242 -13.2012207 11.05573242 -14.87304688 11.04882812 C-17.58208495 11.03699826 -20.29101599 11.02051543 -23 11 C-23 10.67 -23 10.34 -23 10 C-21.74703125 9.93941406 -20.4940625 9.87882813 -19.203125 9.81640625 C-17.55207276 9.73197744 -15.90103165 9.64733061 -14.25 9.5625 C-13.425 9.52318359 -12.6 9.48386719 -11.75 9.44335938 C-10.95078125 9.40146484 -10.1515625 9.35957031 -9.328125 9.31640625 C-8.5949707 9.27974854 -7.86181641 9.24309082 -7.10644531 9.20532227 C-4.98822395 8.99885215 -3.0480544 8.56867914 -1 8 C-1.020625 7.05125 -1.04125 6.1025 -1.0625 5.125 C-1 2 -1 2 0 0 Z " fill="#31322E" transform="translate(508,578)"/>
<path d="M0 0 C1.20076172 0.31324219 1.20076172 0.31324219 2.42578125 0.6328125 C3.23402344 0.83648437 4.04226563 1.04015625 4.875 1.25 C5.48988281 1.41757813 6.10476563 1.58515625 6.73828125 1.7578125 C6.73828125 2.0878125 6.73828125 2.4178125 6.73828125 2.7578125 C4.42828125 2.7578125 2.11828125 2.7578125 -0.26171875 2.7578125 C0.72828125 3.4178125 1.71828125 4.0778125 2.73828125 4.7578125 C2.40828125 5.7478125 2.07828125 6.7378125 1.73828125 7.7578125 C-0.32421875 8.4453125 -0.32421875 8.4453125 -2.26171875 8.7578125 C-1.26171875 6.7578125 -1.26171875 6.7578125 -0.26171875 5.7578125 C-1.25171875 5.7578125 -2.24171875 5.7578125 -3.26171875 5.7578125 C-3.26171875 6.4178125 -3.26171875 7.0778125 -3.26171875 7.7578125 C-3.92171875 7.7578125 -4.58171875 7.7578125 -5.26171875 7.7578125 C-5.44921875 4.8828125 -5.44921875 4.8828125 -5.26171875 1.7578125 C-2.26171875 -0.2421875 -2.26171875 -0.2421875 0 0 Z " fill="#DDD8CF" transform="translate(5.26171875,199.2421875)"/>
<path d="M0 0 C1.32 0 2.64 0 4 0 C4 2.64 4 5.28 4 8 C2.125 8.625 2.125 8.625 0 9 C-0.66 8.34 -1.32 7.68 -2 7 C-1.67 7.99 -1.34 8.98 -1 10 C-3.475 9.01 -3.475 9.01 -6 8 C-4.75 5.5 -4.75 5.5 -3 3 C-1.68 3 -0.36 3 1 3 C1.33 2.34 1.66 1.68 2 1 C1.34 0.67 0.68 0.34 0 0 Z " fill="#E8E2DA" transform="translate(6,465)"/>
<path d="M0 0 C0.33 0 0.66 0 1 0 C1 7.59 1 15.18 1 23 C0.67 23 0.34 23 0 23 C-0.33 20.69 -0.66 18.38 -1 16 C-2.65 15.67 -4.3 15.34 -6 15 C-5.67 14.34 -5.34 13.68 -5 13 C-3.35 13 -1.7 13 0 13 C0 12.34 0 11.68 0 11 C-1.65 11 -3.3 11 -5 11 C-4.67 10.34 -4.34 9.68 -4 9 C-2.68 9 -1.36 9 0 9 C0 6.03 0 3.06 0 0 Z " fill="#EAE5DE" transform="translate(11,384)"/>
<path d="M0 0 C0.33 0 0.66 0 1 0 C1 2.97 1 5.94 1 9 C-0.85625 8.7215625 -0.85625 8.7215625 -2.75 8.4375 C-5.76279577 8.05288777 -8.10010827 7.9125406 -11 9 C-10.67 7.68 -10.34 6.36 -10 5 C-6.66666667 5 -3.33333333 5 0 5 C0 3.35 0 1.7 0 0 Z " fill="#E9E4DC" transform="translate(11,192)"/>
<path d="M0 0 C1.9453125 -0.29296875 1.9453125 -0.29296875 4.125 -0.1875 C5.40375 -0.125625 6.6825 -0.06375 8 0 C7.67 0.99 7.34 1.98 7 3 C4.03 2.505 4.03 2.505 1 2 C0.67 2.66 0.34 3.32 0 4 C-0.66 3.67 -1.32 3.34 -2 3 C-1.34 2.01 -0.68 1.02 0 0 Z M-6 3 C-4.68 3.33 -3.36 3.66 -2 4 C-2 4.99 -2 5.98 -2 7 C-1.01 7.33 -0.02 7.66 1 8 C-1.375 9.5625 -1.375 9.5625 -4 11 C-4.66 10.67 -5.32 10.34 -6 10 C-5.34 9.01 -4.68 8.02 -4 7 C-4.66 5.68 -5.32 4.36 -6 3 Z " fill="#DDD7CE" transform="translate(527,0)"/>
<path d="M0 0 C2.97 0.495 2.97 0.495 6 1 C6 1.66 6 2.32 6 3 C5.01 3 4.02 3 3 3 C3.99 3.66 4.98 4.32 6 5 C5.67 5.66 5.34 6.32 5 7 C2.69 7 0.38 7 -2 7 C-2 6.34 -2 5.68 -2 5 C-3.32 4.34 -4.64 3.68 -6 3 C-4.02 2.67 -2.04 2.34 0 2 C0 1.34 0 0.68 0 0 Z " fill="#E9E1DA" transform="translate(629,725)"/>
<path d="M0 0 C0 0.66 0 1.32 0 2 C-0.99 2 -1.98 2 -3 2 C-3 2.66 -3 3.32 -3 4 C-1.68 4 -0.36 4 1 4 C1 4.66 1 5.32 1 6 C-1.375 6.1875 -1.375 6.1875 -4 6 C-4.66 5.01 -5.32 4.02 -6 3 C-7.32 3 -8.64 3 -10 3 C-10 2.34 -10 1.68 -10 1 C-6.21812119 -0.83691257 -4.05431692 -1.15837626 0 0 Z " fill="#DED7CF" transform="translate(10,617)"/>
<path d="M0 0 C0.99 0.33 1.98 0.66 3 1 C2.01 1.495 2.01 1.495 1 2 C1.66 2.66 2.32 3.32 3 4 C3.99 3.67 4.98 3.34 6 3 C6 3.99 6 4.98 6 6 C6.99 6 7.98 6 9 6 C9 6.66 9 7.32 9 8 C5.37 8 1.74 8 -2 8 C-2 5.69 -2 3.38 -2 1 C-1.34 0.67 -0.68 0.34 0 0 Z " fill="#DBD7CD" transform="translate(2,503)"/>
<path d="M0 0 C3.2626876 3.08632611 6.02235218 5.93483504 8 10 C7.67 10.66 7.34 11.32 7 12 C3.7 9.03 0.4 6.06 -3 3 C-2.01 2.01 -1.02 1.02 0 0 Z " fill="#DBDBD9" transform="translate(461,216)"/>
<path d="M0 0 C0.66 0.66 1.32 1.32 2 2 C4.52037964 2.37135915 4.52037964 2.37135915 7.4453125 2.4140625 C9.05986328 2.47207031 9.05986328 2.47207031 10.70703125 2.53125 C12.39892578 2.57765625 12.39892578 2.57765625 14.125 2.625 C15.82849609 2.68300781 15.82849609 2.68300781 17.56640625 2.7421875 C20.37743956 2.83667601 23.18846233 2.92223541 26 3 C26 3.33 26 3.66 26 4 C16.1 4 6.2 4 -4 4 C-4 3.34 -4 2.68 -4 2 C-2.68 1.34 -1.36 0.68 0 0 Z " fill="#121210" transform="translate(429,584)"/>
<path d="M0 0 C1.98 0.66 3.96 1.32 6 2 C5.67 2.99 5.34 3.98 5 5 C6.37492804 8.1668838 6.37492804 8.1668838 8 11 C5 11 5 11 3.17578125 9.25 C2.56089844 8.5075 1.94601562 7.765 1.3125 7 C0.68988281 6.2575 0.06726563 5.515 -0.57421875 4.75 C-1.04472656 4.1725 -1.51523437 3.595 -2 3 C-1.34 2.01 -0.68 1.02 0 0 Z " fill="#242522" transform="translate(417,392)"/>
<path d="M0 0 C0.33 0 0.66 0 1 0 C1 1.65 1 3.3 1 5 C0.01 5 -0.98 5 -2 5 C-2.66 7.97 -3.32 10.94 -4 14 C-4.66 14 -5.32 14 -6 14 C-6 13.01 -6 12.02 -6 11 C-6.66 10.67 -7.32 10.34 -8 10 C-6.125 6.125 -6.125 6.125 -5 5 C-5 4.34 -5 3.68 -5 3 C-4.01 2.67 -3.02 2.34 -2 2 C-1.34 2.33 -0.68 2.66 0 3 C0 2.01 0 1.02 0 0 Z " fill="#DDD7CE" transform="translate(10,162)"/>
<path d="M0 0 C0 1.65 0 3.3 0 5 C-0.99 4.67 -1.98 4.34 -3 4 C-3.66 4 -4.32 4 -5 4 C-5.33 4.33 -5.66 4.66 -6 5 C-7.66617115 5.04063832 -9.33388095 5.042721 -11 5 C-11 3.68 -11 2.36 -11 1 C-7.26513121 0.4254048 -3.78706732 0 0 0 Z " fill="#DDD8D0" transform="translate(11,362)"/>
<path d="M0 0 C1.98 0 3.96 0 6 0 C6.33 0.66 6.66 1.32 7 2 C5.35 2 3.7 2 2 2 C2.33 2.99 2.66 3.98 3 5 C-0.465 6.485 -0.465 6.485 -4 8 C-4 6.02 -4 4.04 -4 2 C-2.68 2 -1.36 2 0 2 C0 1.34 0 0.68 0 0 Z " fill="#E8E1D9" transform="translate(4,234)"/>
<path d="M0 0 C0.66 0 1.32 0 2 0 C3.37535339 1.97133986 4.70211044 3.97681922 6 6 C6.763125 6.886875 7.52625 7.77375 8.3125 8.6875 C9.1478125 9.8321875 9.1478125 9.8321875 10 11 C9.67 11.99 9.34 12.98 9 14 C8.01 14 7.02 14 6 14 C4.99515796 12.04414675 3.99626195 10.08523763 3 8.125 C2.1646875 6.48917969 2.1646875 6.48917969 1.3125 4.8203125 C0 2 0 2 0 0 Z " fill="#3E3F39" transform="translate(337,80)"/>
<path d="M0 0 C0.33 0 0.66 0 1 0 C1.19491452 1.45736087 1.38069358 2.91594593 1.5625 4.375 C1.66691406 5.18710937 1.77132812 5.99921875 1.87890625 6.8359375 C2 9 2 9 1 11 C1.66 11.33 2.32 11.66 3 12 C2.34 12 1.68 12 1 12 C1 12.99 1 13.98 1 15 C1.66 15 2.32 15 3 15 C3 15.99 3 16.98 3 18 C3.99 18.33 4.98 18.66 6 19 C6 19.66 6 20.32 6 21 C4.02 20.34 2.04 19.68 0 19 C-1.31909709 12.5510809 -0.69508823 6.51244208 0 0 Z " fill="#D9D5CE" transform="translate(729,657)"/>
<path d="M0 0 C1.34187818 0.6492959 2.67479497 1.31731862 4 2 C4.99 2 5.98 2 7 2 C6.67 1.34 6.34 0.68 6 0 C7.32 0.66 8.64 1.32 10 2 C9.67 3.65 9.34 5.3 9 7 C4.49197399 5.74194623 1.5087188 4.09592835 -2 1 C-1.34 0.67 -0.68 0.34 0 0 Z " fill="#2E2F2C" transform="translate(373,362)"/>
<path d="M0 0 C0.66 0.33 1.32 0.66 2 1 C1.34 1.66 0.68 2.32 0 3 C-0.33 3.99 -0.66 4.98 -1 6 C-4.44444444 9 -4.44444444 9 -7 9 C-7.66 7.68 -8.32 6.36 -9 5 C-7.54735962 4.1361871 -6.0876837 3.28419546 -4.625 2.4375 C-3.40683594 1.72400391 -3.40683594 1.72400391 -2.1640625 0.99609375 C-1.44992188 0.66738281 -0.73578125 0.33867187 0 0 Z " fill="#E7E8E3" transform="translate(220,270)"/>
<path d="M0 0 C0.33 0 0.66 0 1 0 C1.19672365 1.72814161 1.38196799 3.45759197 1.5625 5.1875 C1.66691406 6.15042969 1.77132812 7.11335937 1.87890625 8.10546875 C1.99758751 10.94233377 1.67765639 13.25423671 1 16 C2.98 16 4.96 16 7 16 C7 16.66 7 17.32 7 18 C5.02 18 3.04 18 1 18 C1.33 19.32 1.66 20.64 2 22 C1.34 21.67 0.68 21.34 0 21 C-1.40389804 16.60336124 -0.91464455 12.21680753 -0.5625 7.6875 C-0.51029297 6.94693359 -0.45808594 6.20636719 -0.40429688 5.44335938 C-0.27549848 3.62847291 -0.13856738 1.81416675 0 0 Z " fill="#D2CEC7" transform="translate(729,161)"/>
<path d="M0 0 C0.99 0 1.98 0 3 0 C2.67 1.98 2.34 3.96 2 6 C1.01 6 0.02 6 -1 6 C-1 6.66 -1 7.32 -1 8 C-4.28976808 9.09658936 -5.71303767 8.79953138 -9 8 C-9 7.34 -9 6.68 -9 6 C-7.88625 5.7525 -6.7725 5.505 -5.625 5.25 C-1.95384802 4.38994661 -1.95384802 4.38994661 -0.5625 1.875 C-0.376875 1.25625 -0.19125 0.6375 0 0 Z " fill="#DDD7CF" transform="translate(9,61)"/>
<path d="M0 0 C1.62463842 -0.05395478 3.24978541 -0.09277195 4.875 -0.125 C6.23238281 -0.15980469 6.23238281 -0.15980469 7.6171875 -0.1953125 C10 0 10 0 12 2 C7.13948404 4.59227518 2.34728867 4.18689553 -3 4 C-2.67 3.34 -2.34 2.68 -2 2 C-1.34 2 -0.68 2 0 2 C0 1.34 0 0.68 0 0 Z " fill="#E7E3DA" transform="translate(175,732)"/>
<path d="M0 0 C3.63559661 3.43361902 6.36113346 6.7973607 9 11 C8.67 11.66 8.34 12.32 8 13 C0.15754923 7.08315098 0.15754923 7.08315098 -0.5 2.5625 C-0.335 1.716875 -0.17 0.87125 0 0 Z " fill="#D6D6D4" transform="translate(396,143)"/>
<path d="M0 0 C0.33 0 0.66 0 1 0 C1.19840395 3.20775542 1.38175425 6.41620501 1.5625 9.625 C1.61857422 10.52863281 1.67464844 11.43226563 1.73242188 12.36328125 C1.99066718 17.08056217 2.04292737 21.34931647 1 26 C0.67 26 0.34 26 0 26 C-0.19720979 22.41713181 -0.38107522 18.83369943 -0.5625 15.25 C-0.61857422 14.23421875 -0.67464844 13.2184375 -0.73242188 12.171875 C-0.78076172 11.1921875 -0.82910156 10.2125 -0.87890625 9.203125 C-0.9260376 8.30239258 -0.97316895 7.40166016 -1.02172852 6.47363281 C-1.00110175 4.12542592 -0.67823071 2.23793298 0 0 Z " fill="#CCC8C0" transform="translate(728,635)"/>
<path d="M0 0 C2.64752004 2.57784846 4.94432065 4.91648098 7 8 C6.34 8.66 5.68 9.32 5 10 C4.01 8.68 3.02 7.36 2 6 C1.01 6.495 1.01 6.495 0 7 C-0.66 6.34 -1.32 5.68 -2 5 C-2 4.01 -2 3.02 -2 2 C-1.34 2 -0.68 2 0 2 C0 1.34 0 0.68 0 0 Z " fill="#2A2A28" transform="translate(359,108)"/>
<path d="M0 0 C0 0.99 0 1.98 0 3 C-1.32 3 -2.64 3 -4 3 C-4.33 4.32 -4.66 5.64 -5 7 C-2.03 7.495 -2.03 7.495 1 8 C1 8.33 1 8.66 1 9 C-1.64 9.33 -4.28 9.66 -7 10 C-7.36474164 4.52887538 -7.36474164 4.52887538 -5.75 2.1875 C-3.83408198 0.88741278 -2.27029534 0.39143023 0 0 Z " fill="#DAD5CB" transform="translate(7,521)"/>
<path d="M0 0 C3.96 0 7.92 0 12 0 C11.01 0.495 11.01 0.495 10 1 C10.33 2.65 10.66 4.3 11 6 C10.01 5.34 9.02 4.68 8 4 C7.01 4 6.02 4 5 4 C2.3125 2.5625 2.3125 2.5625 0 1 C0 0.67 0 0.34 0 0 Z " fill="#262623" transform="translate(412,485)"/>
<path d="M0 0 C4.29 0 8.58 0 13 0 C12.34 0.66 11.68 1.32 11 2 C11 3.32 11 4.64 11 6 C7.2089881 4.55049545 3.6125362 2.84827434 0 1 C0 0.67 0 0.34 0 0 Z " fill="#242421" transform="translate(323,485)"/>
<path d="M0 0 C1.52519276 0.08937803 3.04681929 0.24537146 4.5625 0.4375 C5.38878906 0.53933594 6.21507812 0.64117187 7.06640625 0.74609375 C7.70449219 0.82988281 8.34257812 0.91367188 9 1 C8.01 1.66 7.02 2.32 6 3 C6 3.66 6 4.32 6 5 C1.91281305 5.24042276 -1.17679443 4.42258812 -5 3 C-4.360625 2.690625 -3.72125 2.38125 -3.0625 2.0625 C-1.06389179 1.1654837 -1.06389179 1.1654837 0 0 Z " fill="#DCD3CC" transform="translate(477,4)"/>
<path d="M0 0 C2.88575819 0.39803561 3.82189513 0.79009069 5.75 3.0625 C6.1625 3.701875 6.575 4.34125 7 5 C6.34 6.32 5.68 7.64 5 9 C4.34 8.67 3.68 8.34 3 8 C3 7.34 3 6.68 3 6 C2.34 6 1.68 6 1 6 C0.67 4.02 0.34 2.04 0 0 Z " fill="#252621" transform="translate(481,219)"/>
<path d="M0 0 C1.32 0.99 2.64 1.98 4 3 C3 6 3 6 -0.0625 7.6875 C-1.031875 8.120625 -2.00125 8.55375 -3 9 C-3.66 8.34 -4.32 7.68 -5 7 C-4.54625 6.5875 -4.0925 6.175 -3.625 5.75 C-1.94049626 3.93591905 -1.00734029 2.24714373 0 0 Z " fill="#E9E9E7" transform="translate(230,171)"/>
<path d="M0 0 C1.32 0.66 2.64 1.32 4 2 C2.35 2.33 0.7 2.66 -1 3 C-1 3.66 -1 4.32 -1 5 C-6.94 5 -12.88 5 -19 5 C-19 4.67 -19 4.34 -19 4 C-13.72 4 -8.44 4 -3 4 C-3 3.34 -3 2.68 -3 2 C-2.01 2 -1.02 2 0 2 C0 1.34 0 0.68 0 0 Z " fill="#EBE6E0" transform="translate(447,7)"/>
<path d="M0 0 C0 2.64 0 5.28 0 8 C-0.99 7.34 -1.98 6.68 -3 6 C-2.67 5.01 -2.34 4.02 -2 3 C-5.3 3.33 -8.6 3.66 -12 4 C-12 3.34 -12 2.68 -12 2 C-10.37548581 1.66430703 -8.75037083 1.3315204 -7.125 1 C-6.22007812 0.814375 -5.31515625 0.62875 -4.3828125 0.4375 C-2 0 -2 0 0 0 Z " fill="#E9E4DC" transform="translate(12,552)"/>
<path d="M0 0 C3.3 0 6.6 0 10 0 C9.01 0.33 8.02 0.66 7 1 C7.99 2.32 8.98 3.64 10 5 C9.01 5.495 9.01 5.495 8 6 C6.0546875 5.22265625 6.0546875 5.22265625 3.875 4.0625 C3.15054688 3.68222656 2.42609375 3.30195313 1.6796875 2.91015625 C1.12539062 2.60980469 0.57109375 2.30945313 0 2 C0 1.34 0 0.68 0 0 Z " fill="#373832" transform="translate(174,483)"/>
<path d="M0 0 C2 3 2 3 2 5 C-1.75 6.125 -1.75 6.125 -4 5 C-6.00800456 5.28112064 -8.01014051 5.61067967 -10 6 C-10 5.34 -10 4.68 -10 4 C-6.7 2.68 -3.4 1.36 0 0 Z " fill="#DCD7CF" transform="translate(10,295)"/>
<path d="M0 0 C0 0.99 0 1.98 0 3 C-0.99 3 -1.98 3 -3 3 C-3.33 3.99 -3.66 4.98 -4 6 C-4.66 6 -5.32 6 -6 6 C-6 6.66 -6 7.32 -6 8 C-6.66 8 -7.32 8 -8 8 C-8 8.66 -8 9.32 -8 10 C-8.99 10.33 -9.98 10.66 -11 11 C-8.75502623 6.16467189 -5.78582795 0 0 0 Z " fill="#DAD4CB" transform="translate(11,70)"/>
<path d="M0 0 C-0.66 0.66 -1.32 1.32 -2 2 C-0.68 2.66 0.64 3.32 2 4 C-2.95 4 -7.9 4 -13 4 C-4.6 -2.3 -4.6 -2.3 0 0 Z " fill="#E7E4DD" transform="translate(629,8)"/>
<path d="M0 0 C0.33 1.32 0.66 2.64 1 4 C-0.98 5.32 -2.96 6.64 -5 8 C-3.62845496 5.04590299 -2.01136276 2.55991624 0 0 Z M-8 9 C-7.34 9.33 -6.68 9.66 -6 10 C-7.65 11.98 -9.3 13.96 -11 16 C-11.99 15.34 -12.98 14.68 -14 14 C-12.02 12.35 -10.04 10.7 -8 9 Z " fill="#DDDED9" transform="translate(524,304)"/>
<path d="M0 0 C0.33 2.97 0.66 5.94 1 9 C-5.875 3.25 -5.875 3.25 -7 1 C-2.25 0 -2.25 0 0 0 Z " fill="#252621" transform="translate(399,205)"/>
<path d="M0 0 C3.015625 0.046875 3.015625 0.046875 6.25 0.75 C7.32765625 0.97171875 8.4053125 1.1934375 9.515625 1.421875 C10.33546875 1.61265625 11.1553125 1.8034375 12 2 C11.67 2.66 11.34 3.32 11 4 C6.05 4 1.1 4 -4 4 C-2.68 2.68 -1.36 1.36 0 0 Z " fill="#ECE5DD" transform="translate(476,1)"/>
<path d="M0 0 C2.97 0 5.94 0 9 0 C9 0.66 9 1.32 9 2 C8.34 2 7.68 2 7 2 C6.67 3.32 6.34 4.64 6 6 C5.5875 5.505 5.175 5.01 4.75 4.5 C2.87797662 2.56613908 2.87797662 2.56613908 -1 3 C-0.67 2.01 -0.34 1.02 0 0 Z " fill="#EAE2DC" transform="translate(577,726)"/>
<path d="M0 0 C0.99 0.33 1.98 0.66 3 1 C1.89718873 2.27200971 0.79269231 3.54255853 -0.3125 4.8125 C-0.92738281 5.52019531 -1.54226563 6.22789062 -2.17578125 6.95703125 C-3.73334335 8.70136739 -5.32658875 10.36778041 -7 12 C-7.66 11.67 -8.32 11.34 -9 11 C-6.03 7.37 -3.06 3.74 0 0 Z " fill="#E4E4E0" transform="translate(276,507)"/>
<path d="M0 0 C0.66 0 1.32 0 2 0 C2 2.64 2 5.28 2 8 C1.01 7.67 0.02 7.34 -1 7 C-1.99 7.66 -2.98 8.32 -4 9 C-4 7.02 -4 5.04 -4 3 C-2.68 2.67 -1.36 2.34 0 2 C0 1.34 0 0.68 0 0 Z " fill="#DFD9D2" transform="translate(734,161)"/>
<path d="M0 0 C0.66 0 1.32 0 2 0 C2 0.66 2 1.32 2 2 C1.34 2 0.68 2 0 2 C0 2.66 0 3.32 0 4 C0.66 4 1.32 4 2 4 C2.33 4.99 2.66 5.98 3 7 C-2.75 7.125 -2.75 7.125 -5 6 C-5 5.34 -5 4.68 -5 4 C-4.01 4 -3.02 4 -2 4 C-1.34 2.68 -0.68 1.36 0 0 Z " fill="#E0D9CF" transform="translate(733,729)"/>
<path d="M0 0 C1.9375 0.3125 1.9375 0.3125 4 1 C5.31223496 4.93670488 4.24296256 7.12488144 3 11 C0.43383368 7.15075052 0.44902324 4.5650696 0 0 Z " fill="#282924" transform="translate(432,416)"/>
<path d="M0 0 C0.8723412 2.99480917 1.10829766 5.63575911 1.0625 8.75 C1.05347656 9.54921875 1.04445313 10.3484375 1.03515625 11.171875 C1.01775391 12.07679688 1.01775391 12.07679688 1 13 C-0.32 12.67 -1.64 12.34 -3 12 C-2.69106068 10.3743193 -2.3777305 8.74947252 -2.0625 7.125 C-1.88847656 6.22007812 -1.71445312 5.31515625 -1.53515625 4.3828125 C-1 2 -1 2 0 0 Z " fill="#151512" transform="translate(492,312)"/>
<path d="M0 0 C3.1921126 0.79802815 5.98155093 1.74231289 9 3 C8.401875 3.268125 7.80375 3.53625 7.1875 3.8125 C5.02775192 4.98493467 3.64209744 6.19369282 2 8 C1.34 5.36 0.68 2.72 0 0 Z " fill="#3B3C36" transform="translate(285,124)"/>
<path d="M0 0 C2.375 0.3125 2.375 0.3125 5 1 C7 4 7 4 6.625 6.1875 C6.41875 6.785625 6.2125 7.38375 6 8 C5.34 8 4.68 8 4 8 C4 6.68 4 5.36 4 4 C2.68 3.67 1.36 3.34 0 3 C0 2.01 0 1.02 0 0 Z " fill="#1D1E19" transform="translate(344,93)"/>
<path d="M0 0 C1.32 0.33 2.64 0.66 4 1 C1.36 4.3 -1.28 7.6 -4 11 C-4.33 10.01 -4.66 9.02 -5 8 C-4.34 7.01 -3.68 6.02 -3 5 C-2.34 5 -1.68 5 -1 5 C-0.67 3.35 -0.34 1.7 0 0 Z " fill="#22221E" transform="translate(281,496)"/>
<path d="M0 0 C2.0625 1.75 2.0625 1.75 4 4 C3.75 6.25 3.75 6.25 3 8 C1.35 8 -0.3 8 -2 8 C-1.47731534 5.23723823 -0.89130413 2.6739124 0 0 Z " fill="#43443F" transform="translate(488,321)"/>
<path d="M0 0 C2.93200474 2.85276137 5.64315404 5.65079784 8 9 C6.02 9.99 6.02 9.99 4 11 C3.32880451 9.5437455 2.66318193 8.08492133 2 6.625 C1.62875 5.81289062 1.2575 5.00078125 0.875 4.1640625 C0 2 0 2 0 0 Z " fill="#3C3D37" transform="translate(368,87)"/>
<path d="M0 0 C1.21236328 0.01353516 1.21236328 0.01353516 2.44921875 0.02734375 C3.37154297 0.04474609 3.37154297 0.04474609 4.3125 0.0625 C1.16658067 2.86295623 -0.754564 3.41511589 -4.9375 3.25 C-5.82953125 3.22292969 -6.7215625 3.19585937 -7.640625 3.16796875 C-8.31609375 3.13316406 -8.9915625 3.09835937 -9.6875 3.0625 C-6.66074696 0.03574696 -4.08749979 -0.05923913 0 0 Z " fill="#DCD5CE" transform="translate(415.6875,6.9375)"/>
<path d="M0 0 C0.99 0.33 1.98 0.66 3 1 C0.03 4.96 0.03 4.96 -3 9 C-4.65 8.67 -6.3 8.34 -8 8 C-8 7.01 -8 6.02 -8 5 C-6.68 5.33 -5.36 5.66 -4 6 C-2.68 4.02 -1.36 2.04 0 0 Z " fill="#DDD6CF" transform="translate(84,2)"/>
<path d="M0 0 C0.33 0.66 0.66 1.32 1 2 C2.155 2.165 3.31 2.33 4.5 2.5 C5.655 2.665 6.81 2.83 8 3 C8.33 3.66 8.66 4.32 9 5 C6.36 5.33 3.72 5.66 1 6 C0.896875 5.360625 0.79375 4.72125 0.6875 4.0625 C0.460625 3.381875 0.23375 2.70125 0 2 C-0.99 1.67 -1.98 1.34 -3 1 C-2.01 0.67 -1.02 0.34 0 0 Z " fill="#E8E4DA" transform="translate(480,730)"/>
<path d="M0 0 C2.7839183 1.39195915 2.97898997 3.15575779 4 6 C1.69 6.33 -0.62 6.66 -3 7 C-3 6.01 -3 5.02 -3 4 C-2.34 3.67 -1.68 3.34 -1 3 C-0.67 2.01 -0.34 1.02 0 0 Z " fill="#E6E3D9" transform="translate(700,729)"/>
<path d="M0 0 C1.98 0.66 3.96 1.32 6 2 C3.37801226 4.15377564 1.35595828 5.40072174 -2 6 C-1.125 1.125 -1.125 1.125 0 0 Z " fill="#DDD9CF" transform="translate(2,483)"/>
<path d="M0 0 C0.33 0.99 0.66 1.98 1 3 C1.99 3 2.98 3 4 3 C4 3.66 4 4.32 4 5 C4.66 5.33 5.32 5.66 6 6 C4.35 6.33 2.7 6.66 1 7 C1 7.66 1 8.32 1 9 C1.66 9 2.32 9 3 9 C3 9.66 3 10.32 3 11 C2.01 10.67 1.02 10.34 0 10 C0 6.7 0 3.4 0 0 Z " fill="#DDD7D0" transform="translate(730,147)"/>
<path d="M0 0 C2.9719385 1.12451727 5.33440687 2.22293791 8 4 C7.34 4 6.68 4 6 4 C6 4.66 6 5.32 6 6 C4.35 6.33 2.7 6.66 1 7 C0.67 4.69 0.34 2.38 0 0 Z M1 2 C1.33 2.66 1.66 3.32 2 4 C2.33 3.34 2.66 2.68 3 2 C2.34 2 1.68 2 1 2 Z " fill="#151613" transform="translate(354,143)"/>
<path d="M0 0 C1.32 1.65 2.64 3.3 4 5 C3.01 5 2.02 5 1 5 C1 9.95 1 14.9 1 20 C-1.14719904 15.70560192 -1.24163442 13.5896158 -1.1875 8.875 C-1.18105469 7.63492188 -1.17460938 6.39484375 -1.16796875 5.1171875 C-1 2 -1 2 0 0 Z " fill="#D4D1C8" transform="translate(729,91)"/>
<path d="M0 0 C1.8125 0.05078125 1.8125 0.05078125 4 0.3125 C4.721875 0.39113281 5.44375 0.46976563 6.1875 0.55078125 C7.0846875 0.77314453 7.0846875 0.77314453 8 1 C8.33 1.66 8.66 2.32 9 3 C9.66 3.33 10.32 3.66 11 4 C7.71303767 4.79953138 6.28976808 5.09658936 3 4 C3 3.34 3 2.68 3 2 C1.68 1.67 0.36 1.34 -1 1 C-0.67 0.67 -0.34 0.34 0 0 Z " fill="#E9E2DC" transform="translate(475,725)"/>
<path d="M0 0 C0.66 0.33 1.32 0.66 2 1 C2 2.65 2 4.3 2 6 C1.01 6.33 0.02 6.66 -1 7 C-1.33 7.99 -1.66 8.98 -2 10 C-2.66 10 -3.32 10 -4 10 C-2.8905928 6.51329166 -1.73662334 3.22515763 0 0 Z " fill="#DCDDD7" transform="translate(339,578)"/>
<path d="M0 0 C0.66 0.33 1.32 0.66 2 1 C-0.97 4.96 -0.97 4.96 -4 9 C-4.66 8.67 -5.32 8.34 -6 8 C-6 7.34 -6 6.68 -6 6 C-5.34 6 -4.68 6 -4 6 C-3.896875 5.38125 -3.79375 4.7625 -3.6875 4.125 C-3 2 -3 2 0 0 Z " fill="#EBECE6" transform="translate(242,495)"/>
<path d="M0 0 C1.32 1.65 2.64 3.3 4 5 C3.01 5.33 2.02 5.66 1 6 C1 6.66 1 7.32 1 8 C1.66 8.33 2.32 8.66 3 9 C2.34 9 1.68 9 1 9 C1 11.31 1 13.62 1 16 C0.67 16 0.34 16 0 16 C0 10.72 0 5.44 0 0 Z M3 7 C5 8 5 8 5 8 Z " fill="#DCD7D0" transform="translate(730,304)"/>
<path d="M0 0 C4.875 4.75 4.875 4.75 6 7 C4.02 7.66 2.04 8.32 0 9 C-0.87890625 2.84765625 -0.87890625 2.84765625 -1 1 C-0.67 0.67 -0.34 0.34 0 0 Z " fill="#E2E3DE" transform="translate(417,235)"/>
<path d="M0 0 C0.66 0.99 1.32 1.98 2 3 C0.42298018 3.55978184 -1.16199242 4.09719401 -2.75 4.625 C-3.63171875 4.92664063 -4.5134375 5.22828125 -5.421875 5.5390625 C-8.41017471 6.07333427 -9.49923002 5.62433191 -12 4 C-10.7625 3.67 -9.525 3.34 -8.25 3 C-7.20585937 2.7215625 -7.20585937 2.7215625 -6.140625 2.4375 C-4 2 -4 2 0 2 C0 1.34 0 0.68 0 0 Z " fill="#323330" transform="translate(260,153)"/>
<path d="M0 0 C0 0.66 0 1.32 0 2 C0.66 2.66 1.32 3.32 2 4 C0.68 4 -0.64 4 -2 4 C-2 3.34 -2 2.68 -2 2 C-4.64 2 -7.28 2 -10 2 C-10 1.34 -10 0.68 -10 0 C-6.30581799 -1.231394 -3.7943739 -0.64432764 0 0 Z " fill="#DAD6CD" transform="translate(230,2)"/>
<path d="M0 0 C1.98 0 3.96 0 6 0 C6 1.65 6 3.3 6 5 C4.02 4.34 2.04 3.68 0 3 C0 2.01 0 1.02 0 0 Z " fill="#EAE3DC" transform="translate(4,585)"/>
<path d="M0 0 C2.5 0.1875 2.5 0.1875 5 1 C5.66 1.99 6.32 2.98 7 4 C5.3125 4.6875 5.3125 4.6875 3 5 C0.25 3.5625 0.25 3.5625 -2 2 C-1.34 1.34 -0.68 0.68 0 0 Z " fill="#262724" transform="translate(279,316)"/>
<path d="M0 0 C0 0.66 0 1.32 0 2 C-4.95 3.485 -4.95 3.485 -10 5 C-10 4.01 -10 3.02 -10 2 C-6.38026598 0.68373308 -3.90432869 0 0 0 Z " fill="#EAE4DC" transform="translate(10,220)"/>
<path d="M0 0 C2.64 0 5.28 0 8 0 C8 0.66 8 1.32 8 2 C8.99 2 9.98 2 11 2 C11 2.66 11 3.32 11 4 C5.06 3.01 5.06 3.01 -1 2 C-0.67 1.34 -0.34 0.68 0 0 Z " fill="#EBE4DC" transform="translate(220,4)"/>
<path d="M0 0 C-0.33 0.99 -0.66 1.98 -1 3 C-4.0625 4.1875 -4.0625 4.1875 -7 5 C-7.33 3.68 -7.66 2.36 -8 1 C-5.29120665 -0.35439668 -2.99066732 -0.06501451 0 0 Z " fill="#E2DFD7" transform="translate(454,725)"/>
<path d="M0 0 C1 3 1 3 1 6 C2.32 5.67 3.64 5.34 5 5 C4.67 5.99 4.34 6.98 4 8 C2.35 8.33 0.7 8.66 -1 9 C-1.09765625 2.84765625 -1.09765625 2.84765625 -1 1 C-0.67 0.67 -0.34 0.34 0 0 Z " fill="#E8E2DC" transform="translate(731,476)"/>
<path d="M0 0 C2.97 0.495 2.97 0.495 6 1 C5.67 1.99 5.34 2.98 5 4 C2.625 4.625 2.625 4.625 0 5 C-0.66 4.34 -1.32 3.68 -2 3 C-1.34 2.01 -0.68 1.02 0 0 Z " fill="#F7F8F2" transform="translate(347,353)"/>
<path d="M0 0 C-1 3 -1 3 -2.92578125 3.984375 C-3.71339844 4.23703125 -4.50101562 4.4896875 -5.3125 4.75 C-6.09238281 5.01296875 -6.87226563 5.2759375 -7.67578125 5.546875 C-10.16921091 6.03298902 -11.6181897 5.80665429 -14 5 C-12.04350603 4.16235732 -10.08474444 3.33000941 -8.125 2.5 C-6.48917969 1.80390625 -6.48917969 1.80390625 -4.8203125 1.09375 C-2 0 -2 0 0 0 Z " fill="#CACAC5" transform="translate(505,322)"/>
<path d="M0 0 C3.875 1.75 3.875 1.75 5 4 C4.34 4 3.68 4 3 4 C2.67 4.66 2.34 5.32 2 6 C0.68 6 -0.64 6 -2 6 C-1.49396008 3.83125748 -1.00016187 2.00032373 0 0 Z " fill="#222221" transform="translate(499,261)"/>
<path d="M0 0 C0.33 0.66 0.66 1.32 1 2 C1.66 2 2.32 2 3 2 C3 2.66 3 3.32 3 4 C0.36 4 -2.28 4 -5 4 C-5 4.66 -5 5.32 -5 6 C-5.99 5.67 -6.98 5.34 -8 5 C-5.31158141 2.74754119 -3.35358125 1.11786042 0 0 Z " fill="#DAD4CB" transform="translate(8,148)"/>
<path d="M0 0 C0.66 0 1.32 0 2 0 C2 2.31 2 4.62 2 7 C1.01 6.67 0.02 6.34 -1 6 C-2.66362417 5.65179959 -4.32995171 5.31595508 -6 5 C-5.67 4.34 -5.34 3.68 -5 3 C-2.4375 2.375 -2.4375 2.375 0 2 C0 1.34 0 0.68 0 0 Z " fill="#DBD4CE" transform="translate(9,137)"/>
<path d="M0 0 C0.99 0 1.98 0 3 0 C3 1.32 3 2.64 3 4 C3.99 3.67 4.98 3.34 6 3 C6.33 3.66 6.66 4.32 7 5 C5.68 5.99 4.36 6.98 3 8 C0 2.25 0 2.25 0 0 Z M6 1 C6.66 1.66 7.32 2.32 8 3 C7.34 3 6.68 3 6 3 C6 2.34 6 1.68 6 1 Z " fill="#2B2C28" transform="translate(345,97)"/>
<path d="M0 0 C0 5.61 0 11.22 0 17 C-0.33 17 -0.66 17 -1 17 C-1 12.38 -1 7.76 -1 3 C-1.99 3 -2.98 3 -4 3 C-4 2.34 -4 1.68 -4 1 C-2 0 -2 0 0 0 Z " fill="#EBE7E0" transform="translate(12,87)"/>
<path d="M0 0 C2.64 0.33 5.28 0.66 8 1 C5.59078295 3.40921705 3.05665491 4.53812156 0 6 C0 4.02 0 2.04 0 0 Z " fill="#DAD6CC" transform="translate(0,515)"/>
<path d="M0 0 C1.98 0.66 3.96 1.32 6 2 C5.34 3.32 4.68 4.64 4 6 C3.34 5.67 2.68 5.34 2 5 C0.67139075 4.64830932 -0.66158328 4.31229724 -2 4 C-1.34 2.68 -0.68 1.36 0 0 Z " fill="#DED9D0" transform="translate(2,376)"/>
<path d="M0 0 C3.37503669 1.1858237 5.64722731 2.27573689 8 5 C4.71023192 6.09658936 3.28696233 5.79953138 0 5 C0 3.35 0 1.7 0 0 Z " fill="#21211F" transform="translate(328,128)"/>
<path d="M0 0 C0.99 0.99 1.98 1.98 3 3 C0.31158141 5.25245881 -1.64641875 6.88213958 -5 8 C-4.34 6.02 -3.68 4.04 -3 2 C-2.01 2 -1.02 2 0 2 C0 1.34 0 0.68 0 0 Z " fill="#2B2B29" transform="translate(356,104)"/>
<path d="M0 0 C1.52519276 0.08937803 3.04681929 0.24537146 4.5625 0.4375 C5.80193359 0.59025391 5.80193359 0.59025391 7.06640625 0.74609375 C7.70449219 0.82988281 8.34257813 0.91367188 9 1 C9 1.66 9 2.32 9 3 C7.02 3.33 5.04 3.66 3 4 C3 3.34 3 2.68 3 2 C1.68 1.67 0.36 1.34 -1 1 C-0.67 0.67 -0.34 0.34 0 0 Z " fill="#DDD8D2" transform="translate(529,8)"/>
<path d="M0 0 C0.99 0.33 1.98 0.66 3 1 C2.67 1.66 2.34 2.32 2 3 C1.34 3 0.68 3 0 3 C0 3.66 0 4.32 0 5 C0.66 5.33 1.32 5.66 2 6 C-2.75 5.125 -2.75 5.125 -5 4 C-5 3.34 -5 2.68 -5 2 C-3.35 2 -1.7 2 0 2 C0 1.34 0 0.68 0 0 Z " fill="#EBE3DC" transform="translate(435,3)"/>
<path d="M0 0 C0.33 0.66 0.66 1.32 1 2 C-0.65 2.33 -2.3 2.66 -4 3 C-4 3.66 -4 4.32 -4 5 C-5.98 5 -7.96 5 -10 5 C-10 4.34 -10 3.68 -10 3 C-9.46375 2.87625 -8.9275 2.7525 -8.375 2.625 C-5.5361714 1.87793984 -2.77776798 0.94696636 0 0 Z " fill="#DBD6CC" transform="translate(439,0)"/>
<path d="M0 0 C0.66 0 1.32 0 2 0 C2 1.98 2 3.96 2 6 C0.35 6.66 -1.3 7.32 -3 8 C-1.125 1.125 -1.125 1.125 0 0 Z " fill="#2D2D2B" transform="translate(305,568)"/>
<path d="M0 0 C0 1.65 0 3.3 0 5 C-2.97 4.505 -2.97 4.505 -6 4 C-6 3.34 -6 2.68 -6 2 C-1.125 0 -1.125 0 0 0 Z M-4 5 C-3.01 5.495 -3.01 5.495 -2 6 C-2.66 6.66 -3.32 7.32 -4 8 C-4 7.01 -4 6.02 -4 5 Z " fill="#DDD7CF" transform="translate(736,483)"/>
<path d="M0 0 C1.98 0 3.96 0 6 0 C5.67 1.32 5.34 2.64 5 4 C4.01 4 3.02 4 2 4 C1.34 4.99 0.68 5.98 0 7 C0 4.69 0 2.38 0 0 Z " fill="#DED8D1" transform="translate(730,400)"/>
<path d="M0 0 C3.125 0.375 3.125 0.375 6 1 C5.67 2.65 5.34 4.3 5 6 C1.535 4.02 1.535 4.02 -2 2 C-1.34 1.34 -0.68 0.68 0 0 Z " fill="#E6E7E1" transform="translate(309,304)"/>
<path d="M0 0 C0.66 0 1.32 0 2 0 C2.33 0.66 2.66 1.32 3 2 C5.02463255 2.65213292 5.02463255 2.65213292 7 3 C4.09399739 4.25664978 2.20395416 5 -1 5 C-0.67 3.35 -0.34 1.7 0 0 Z " fill="#DCD8CE" transform="translate(1,264)"/>
<path d="M0 0 C2.63664741 2.63664741 4.255224 4.75970171 6 8 C6 8.66 6 9.32 6 10 C4.68 9.67 3.36 9.34 2 9 C1.34 6.03 0.68 3.06 0 0 Z " fill="#D2D2D0" transform="translate(366,138)"/>
<path d="M0 0 C2.64 0.33 5.28 0.66 8 1 C7.67 1.66 7.34 2.32 7 3 C4.36 3 1.72 3 -1 3 C-0.67 2.01 -0.34 1.02 0 0 Z " fill="#DCD7D0" transform="translate(641,8)"/>
<path d="M0 0 C0.66 0.99 1.32 1.98 2 3 C2.99 3.66 3.98 4.32 5 5 C2.04335481 6.4783226 -0.74229737 6.06032783 -4 6 C-3.34 5.01 -2.68 4.02 -2 3 C-1.34 3 -0.68 3 0 3 C0 2.01 0 1.02 0 0 Z " fill="#ECE4DD" transform="translate(536,3)"/>
<path d="M0 0 C0 1.32 0 2.64 0 4 C-2.31 4.33 -4.62 4.66 -7 5 C-5.22678182 1.07358831 -4.52021524 0 0 0 Z " fill="#DBD4CD" transform="translate(11,667)"/>
<path d="M0 0 C1.98 0 3.96 0 6 0 C6 0.66 6 1.32 6 2 C4.68 2 3.36 2 2 2 C2.33 2.99 2.66 3.98 3 5 C2.01 5.33 1.02 5.66 0 6 C0 4.02 0 2.04 0 0 Z " fill="#E7E1DA" transform="translate(730,251)"/>
<path d="M0 0 C-2.64 0.33 -5.28 0.66 -8 1 C-8 1.66 -8 2.32 -8 3 C-10.31 2.67 -12.62 2.34 -15 2 C-10.44160484 -0.7350371 -5.08761101 -1.83153997 0 0 Z " fill="#5B5C59" transform="translate(246,159)"/>
<path d="M0 0 C0.33 0 0.66 0 1 0 C1.22127098 2.29045368 1.4266504 4.58244764 1.625 6.875 C1.74101563 8.15117188 1.85703125 9.42734375 1.9765625 10.7421875 C1.98429688 11.81726563 1.99203125 12.89234375 2 14 C1.34 14.66 0.68 15.32 0 16 C-0.82622671 10.39436958 -1.06795656 5.57710648 0 0 Z " fill="#C8C5BD" transform="translate(728,77)"/>
<path d="M0 0 C0 0.66 0 1.32 0 2 C0.66 2.33 1.32 2.66 2 3 C-4.15234375 2.4140625 -4.15234375 2.4140625 -6 2 C-6.33 1.34 -6.66 0.68 -7 0 C-3.86650268 -1.04449911 -3.01031744 -0.93423645 0 0 Z M-3 2 C-2.67 2.66 -2.34 3.32 -2 4 C-2.66 3.67 -3.32 3.34 -4 3 C-3.67 2.67 -3.34 2.34 -3 2 Z " fill="#DBD5CC" transform="translate(7,606)"/>
<path d="M0 0 C3.63 0 7.26 0 11 0 C7.7868736 2.14208427 5.78934603 2.59687808 2 3 C1.34 2.67 0.68 2.34 0 2 C0 1.34 0 0.68 0 0 Z " fill="#1C1C18" transform="translate(502,484)"/>
<path d="M0 0 C3 1 3 1 4 3 C4.039992 4.99960012 4.04346799 7.00047242 4 9 C3.34 9 2.68 9 2 9 C1.34 6.03 0.68 3.06 0 0 Z " fill="#ADACA6" transform="translate(725,393)"/>
<path d="M0 0 C2 1 2 1 4 3 C4 3.99 4 4.98 4 6 C1.69 5.34 -0.62 4.68 -3 4 C-2.34 3.67 -1.68 3.34 -1 3 C-0.67 2.01 -0.34 1.02 0 0 Z " fill="#323230" transform="translate(326,338)"/>
<path d="M0 0 C1.32 0 2.64 0 4 0 C4 1.65 4 3.3 4 5 C2.68 5.33 1.36 5.66 0 6 C0 4.02 0 2.04 0 0 Z " fill="#DED7CF" transform="translate(732,253)"/>
<path d="M0 0 C2.475 0.99 2.475 0.99 5 2 C4.34 3.65 3.68 5.3 3 7 C2.67 6.34 2.34 5.68 2 5 C1.34 4.67 0.68 4.34 0 4 C0 2.68 0 1.36 0 0 Z " fill="#DCDDD8" transform="translate(215,201)"/>
<path d="M0 0 C3.3 0.99 6.6 1.98 10 3 C8.68 3.99 7.36 4.98 6 6 C5.01 5.67 4.02 5.34 3 5 C3 4.34 3 3.68 3 3 C2.01 2.01 1.02 1.02 0 0 Z " fill="#373735" transform="translate(358,144)"/>
<path d="M0 0 C0.66 0 1.32 0 2 0 C1.3125 1.9375 1.3125 1.9375 0 4 C-2.625 4.75 -2.625 4.75 -5 5 C-5.66 3.68 -6.32 2.36 -7 1 C-4.69 1.33 -2.38 1.66 0 2 C0 1.34 0 0.68 0 0 Z " fill="#131311" transform="translate(323,137)"/>
<path d="M0 0 C4.75 0.875 4.75 0.875 7 2 C7 2.66 7 3.32 7 4 C6.01 4 5.02 4 4 4 C4 3.34 4 2.68 4 2 C1.69 2.66 -0.62 3.32 -3 4 C-2.01 2.68 -1.02 1.36 0 0 Z " fill="#DCD6CE" transform="translate(3,45)"/>
<path d="M0 0 C0 0.66 0 1.32 0 2 C-1.32 2.33 -2.64 2.66 -4 3 C-4 3.66 -4 4.32 -4 5 C-5.65 5 -7.3 5 -9 5 C-6.45523312 2.20075644 -3.92372883 0 0 0 Z " fill="#D9D4CD" transform="translate(36,725)"/>
<path d="M0 0 C2.64 0 5.28 0 8 0 C7.67 1.32 7.34 2.64 7 4 C4.07175348 3.02391783 2.38573379 1.89213369 0 0 Z " fill="#DBD5CE" transform="translate(464,725)"/>
<path d="M0 0 C0.66 0 1.32 0 2 0 C2.33 1.65 2.66 3.3 3 5 C1.02 5.33 -0.96 5.66 -3 6 C-1.125 1.125 -1.125 1.125 0 0 Z " fill="#DCD8CF" transform="translate(733,722)"/>
<path d="M0 0 C-3.6441774 2.4294516 -5.71241272 2.16179575 -10 2 C-9 0 -9 0 -7.25 -0.6875 C-4.60760177 -1.05449975 -2.57327078 -0.64331769 0 0 Z " fill="#DBD5CD" transform="translate(10,552)"/>
<path d="M0 0 C0.99 0.33 1.98 0.66 3 1 C2.67 1.66 2.34 2.32 2 3 C1.34 3 0.68 3 0 3 C0 3.66 0 4.32 0 5 C0.66 5.33 1.32 5.66 2 6 C0.02 6.99 0.02 6.99 -2 8 C-2 6.02 -2 4.04 -2 2 C-1.34 2 -0.68 2 0 2 C0 1.34 0 0.68 0 0 Z " fill="#DCD8D2" transform="translate(2,414)"/>
<path d="M0 0 C3.08236365 2.78407039 3.95206337 3.80825346 5 8 C2.69 6.35 0.38 4.7 -2 3 C-1.34 2.67 -0.68 2.34 0 2 C0 1.34 0 0.68 0 0 Z " fill="#D1D1CF" transform="translate(464,220)"/>
<path d="M0 0 C1.32 0.33 2.64 0.66 4 1 C4.33 2.65 4.66 4.3 5 6 C4.01 6.495 4.01 6.495 3 7 C0 2.25 0 2.25 0 0 Z " fill="#212120" transform="translate(366,136)"/>
<path d="M0 0 C0.99 0 1.98 0 3 0 C2.34 1.98 1.68 3.96 1 6 C0.01 5.67 -0.98 5.34 -2 5 C-1.125 1.125 -1.125 1.125 0 0 Z " fill="#161614" transform="translate(379,104)"/>
<path d="M0 0 C0.99 0.33 1.98 0.66 3 1 C3 2.98 3 4.96 3 7 C1.68 6.01 0.36 5.02 -1 4 C-0.67 2.68 -0.34 1.36 0 0 Z " fill="#F1F2ED" transform="translate(359,103)"/>
<path d="M0 0 C0.99 0 1.98 0 3 0 C3 0.66 3 1.32 3 2 C2.34 2 1.68 2 1 2 C1.33 2.99 1.66 3.98 2 5 C0.02 5.33 -1.96 5.66 -4 6 C-2.84826645 3.53199953 -1.95216435 1.95216435 0 0 Z " fill="#EAE4DB" transform="translate(4,34)"/>
<path d="M0 0 C0 0.66 0 1.32 0 2 C-2.59240819 3.8597711 -5.14410847 5.57205423 -8 7 C-7.62005832 4.24542282 -7.1926367 3.17979426 -5.125 1.25 C-3 0 -3 0 0 0 Z " fill="#D7D3C9" transform="translate(8,31)"/>
<path d="M0 0 C0.66 0.33 1.32 0.66 2 1 C1.67 1.66 1.34 2.32 1 3 C2.32 2.67 3.64 2.34 5 2 C4.67 2.99 4.34 3.98 4 5 C2.02 5 0.04 5 -2 5 C-2 4.34 -2 3.68 -2 3 C-1.34 3 -0.68 3 0 3 C0 2.01 0 1.02 0 0 Z " fill="#D7D3CA" transform="translate(7,8)"/>
<path d="M0 0 C2.05078125 0.03255208 4.1015625 0.06510417 6.15234375 0.09765625 C5.15234375 2.09765625 5.15234375 2.09765625 2.08984375 3.22265625 C0.63578125 3.65578125 0.63578125 3.65578125 -0.84765625 4.09765625 C-1.50765625 3.10765625 -2.16765625 2.11765625 -2.84765625 1.09765625 C-1.84765625 0.09765625 -1.84765625 0.09765625 0 0 Z " fill="#E8E4DB" transform="translate(7.84765625,3.90234375)"/>
<path d="M0 0 C2.64 0 5.28 0 8 0 C8 0.66 8 1.32 8 2 C5.69 2.33 3.38 2.66 1 3 C0.67 2.01 0.34 1.02 0 0 Z " fill="#DAD1CA" transform="translate(117,729)"/>
<path d="M0 0 C1.65 0 3.3 0 5 0 C5 0.66 5 1.32 5 2 C4.34 2 3.68 2 3 2 C3 2.66 3 3.32 3 4 C1.68 3.67 0.36 3.34 -1 3 C-0.67 2.01 -0.34 1.02 0 0 Z " fill="#E0D9D0" transform="translate(640,726)"/>
<path d="M0 0 C2.475 0.99 2.475 0.99 5 2 C4.34 3.32 3.68 4.64 3 6 C2.34 6 1.68 6 1 6 C0.67 4.02 0.34 2.04 0 0 Z " fill="#DAD7D0" transform="translate(728,677)"/>
<path d="M0 0 C0.33 1.32 0.66 2.64 1 4 C-1.97 4 -4.94 4 -8 4 C-7.34 3.01 -6.68 2.02 -6 1 C-3.4375 0.875 -3.4375 0.875 -1 1 C-0.67 0.67 -0.34 0.34 0 0 Z " fill="#EAE4DD" transform="translate(9,548)"/>
<path d="M0 0 C0 0.66 0 1.32 0 2 C-0.66 2 -1.32 2 -2 2 C-2 2.99 -2 3.98 -2 5 C-3.65 5 -5.3 5 -7 5 C-2.25 0 -2.25 0 0 0 Z " fill="#DCD4CD" transform="translate(10,537)"/>
<path d="M0 0 C-1.375 1.5 -1.375 1.5 -3 3 C-3.66 3 -4.32 3 -5 3 C-5.33 3.66 -5.66 4.32 -6 5 C-6.66 4.67 -7.32 4.34 -8 4 C-8 3.34 -8 2.68 -8 2 C-3.61016949 -1.20338983 -3.61016949 -1.20338983 0 0 Z " fill="#DCD7CE" transform="translate(8,403)"/>
<path d="M0 0 C-0.33 0.99 -0.66 1.98 -1 3 C-2.98 3 -4.96 3 -7 3 C-7 2.34 -7 1.68 -7 1 C-3.375 -1.125 -3.375 -1.125 0 0 Z " fill="#D8D2CB" transform="translate(12,312)"/>
<path d="M0 0 C1.65 1.32 3.3 2.64 5 4 C4.67 4.99 4.34 5.98 4 7 C2.35 5.68 0.7 4.36 -1 3 C-0.67 2.01 -0.34 1.02 0 0 Z " fill="#E8E9E4" transform="translate(269,269)"/>
<path d="M0 0 C2.52588702 2.36292656 3.88820837 3.66462511 5 7 C4.01 7 3.02 7 2 7 C0 5 0 5 -0.125 2.375 C-0.08375 1.59125 -0.0425 0.8075 0 0 Z " fill="#2A2A28" transform="translate(490,229)"/>
<path d="M0 0 C3.875 1.75 3.875 1.75 5 4 C3.35 4.33 1.7 4.66 0 5 C-0.5625 3.0625 -0.5625 3.0625 -1 1 C-0.67 0.67 -0.34 0.34 0 0 Z " fill="#CCCCCA" transform="translate(452,207)"/>
<path d="M0 0 C0.66 0.33 1.32 0.66 2 1 C-0.25 3.5625 -0.25 3.5625 -3 6 C-4.32 5.67 -5.64 5.34 -7 5 C-4.69 3.35 -2.38 1.7 0 0 Z " fill="#2B2C28" transform="translate(225,181)"/>
<path d="M0 0 C-0.33 1.32 -0.66 2.64 -1 4 C-0.34 4.33 0.32 4.66 1 5 C0.34 5.66 -0.32 6.32 -1 7 C-2.32 5.02 -3.64 3.04 -5 1 C-3 0 -3 0 0 0 Z " fill="#F0F0EB" transform="translate(388,133)"/>
<path d="M0 0 C0 0.99 0 1.98 0 3 C-2.64 3 -5.28 3 -8 3 C-6.14481495 -0.71037009 -3.79223618 -1.26407873 0 0 Z " fill="#DED6CF" transform="translate(179,6)"/>
<path d="M0 0 C2.25 0.25 2.25 0.25 4 1 C3.67 1.99 3.34 2.98 3 4 C0.69 4 -1.62 4 -4 4 C-2.25 1.9375 -2.25 1.9375 0 0 Z " fill="#E9E3DC" transform="translate(164,732)"/>
<path d="M0 0 C1.32 0 2.64 0 4 0 C4.66 1.32 5.32 2.64 6 4 C5.01 4.33 4.02 4.66 3 5 C2.67 4.01 2.34 3.02 2 2 C1.01 1.67 0.02 1.34 -1 1 C-0.67 0.67 -0.34 0.34 0 0 Z " fill="#EAE2DB" transform="translate(587,729)"/>
<path d="M0 0 C0.99 0 1.98 0 3 0 C3 0.66 3 1.32 3 2 C3.66 2 4.32 2 5 2 C5 2.66 5 3.32 5 4 C5.99 4.33 6.98 4.66 8 5 C4.28400809 5.20086443 3.22791555 5.1519437 0 3 C0 2.01 0 1.02 0 0 Z " fill="#DBD6CD" transform="translate(0,592)"/>
<path d="M0 0 C0.99 1.32 1.98 2.64 3 4 C1.02 4.99 -0.96 5.98 -3 7 C-2.25 2.25 -2.25 2.25 0 0 Z " fill="#EBE7DD" transform="translate(3,518)"/>
<path d="M0 0 C1.65 0 3.3 0 5 0 C5 1.32 5 2.64 5 4 C3.35 4 1.7 4 0 4 C0 2.68 0 1.36 0 0 Z " fill="#DCD5CE" transform="translate(6,279)"/>
<path d="M0 0 C2.7839183 1.39195915 2.97898997 3.15575779 4 6 C1.5625 5.1875 1.5625 5.1875 -1 4 C-1.33 3.01 -1.66 2.02 -2 1 C-1.34 0.67 -0.68 0.34 0 0 Z " fill="#31322D" transform="translate(449,258)"/>
<path d="M0 0 C0.66 0.33 1.32 0.66 2 1 C0.8125 3 0.8125 3 -1 5 C-3.6875 5.25 -3.6875 5.25 -6 5 C-5.195625 4.360625 -4.39125 3.72125 -3.5625 3.0625 C-1.7249496 1.59396498 -1.7249496 1.59396498 0 0 Z " fill="#363732" transform="translate(216,187)"/>
<path d="M0 0 C1.9375 0.75 1.9375 0.75 4 2 C4.75 4.125 4.75 4.125 5 6 C2.03 5.505 2.03 5.505 -1 5 C-0.67 3.35 -0.34 1.7 0 0 Z " fill="#151611" transform="translate(450,177)"/>
<path d="M0 0 C0 0.66 0 1.32 0 2 C0.66 2 1.32 2 2 2 C1.67 2.99 1.34 3.98 1 5 C-2.875 3.25 -2.875 3.25 -4 1 C-2 0 -2 0 0 0 Z " fill="#E0E1DB" transform="translate(434,156)"/>
<path d="M0 0 C0.66 0.99 1.32 1.98 2 3 C5.56769552 3.73606499 5.56769552 3.73606499 9 4 C9 4.33 9 4.66 9 5 C6.03 5 3.06 5 0 5 C0 4.34 0 3.68 0 3 C-0.99 2.67 -1.98 2.34 -3 2 C-2.01 2 -1.02 2 0 2 C0 1.34 0 0.68 0 0 Z " fill="#DCD6CD" transform="translate(55,6)"/>
</svg>
